<?xml version="1.0" standalone="no"?>
<!DOCTYPE svg PUBLIC "-//W3C//DTD SVG 20010904//EN"
 "http://www.w3.org/TR/2001/REC-SVG-20010904/DTD/svg10.dtd">
<svg version="1.0" xmlns="http://www.w3.org/2000/svg"
 width="900.000000pt" height="636.000000pt" viewBox="0 0 900.000000 636.000000"
 preserveAspectRatio="xMidYMid meet">

<g transform="translate(0.000000,636.000000) scale(0.100000,-0.100000)"
fill="#000000" stroke="none">
<path d="M4270 6320 c0 -5 5 -10 10 -10 13 0 13 -167 0 -175 -6 -4 -4 -12 5
-21 10 -10 15 -35 15 -74 0 -32 3 -66 7 -75 5 -14 2 -16 -15 -10 -16 5 -22 2
-22 -9 0 -12 11 -16 50 -16 36 0 50 4 50 14 0 8 -7 16 -15 20 -12 4 -15 28
-15 123 l0 118 20 -25 c11 -14 20 -31 20 -38 0 -8 9 -21 19 -30 11 -10 42 -53
69 -97 67 -109 77 -109 86 2 5 65 11 91 23 101 16 11 15 12 -2 12 -16 0 -17 7
-11 82 5 59 11 85 24 94 16 12 16 13 0 14 -9 0 -24 3 -34 7 -12 5 -15 3 -9 -6
6 -10 3 -11 -12 -3 -10 6 -25 7 -32 3 -10 -6 -9 -9 3 -14 12 -5 15 -29 18
-116 2 -61 0 -111 -3 -111 -10 0 -20 31 -13 41 3 5 -2 12 -10 15 -9 3 -45 48
-81 100 -46 66 -72 94 -86 94 -13 0 -18 -4 -13 -12 6 -10 4 -10 -7 0 -16 14
-39 16 -39 2z m40 -180 c0 -5 -5 -10 -11 -10 -5 0 -7 5 -4 10 3 6 8 10 11 10
2 0 4 -4 4 -10z"/>
<path d="M4065 6310 c-3 -5 0 -10 8 -10 10 0 17 -23 23 -89 5 -49 7 -89 4 -89
-18 1 -23 -4 -10 -12 10 -6 16 -32 18 -81 3 -48 7 -67 14 -58 7 11 8 9 6 -6
-3 -14 -11 -19 -27 -17 -14 1 -21 -2 -19 -10 3 -7 14 -13 26 -12 104 3 112 5
112 19 0 8 -6 15 -14 15 -18 0 -27 138 -10 154 8 8 8 13 -1 21 -7 6 -15 44
-18 87 -5 66 -3 79 11 88 13 7 5 9 -31 10 -36 0 -46 -3 -41 -12 6 -10 4 -10
-7 0 -16 15 -36 16 -44 2z"/>
<path d="M3964 6301 c3 -4 -7 -6 -22 -3 -24 4 -25 3 -11 -9 9 -8 20 -27 23
-44 4 -18 3 -25 -2 -17 -11 16 -33 -76 -26 -109 5 -20 4 -21 -6 -9 -9 12 -11
8 -6 -20 5 -27 3 -31 -5 -20 -8 12 -9 9 -5 -12 4 -16 2 -28 -3 -28 -11 0 -24
48 -16 60 4 6 0 10 -9 10 -8 0 -35 34 -61 76 -36 60 -43 79 -34 90 9 11 7 14
-10 14 -12 0 -20 -4 -17 -9 3 -4 -6 -6 -21 -3 -15 3 -24 1 -20 -5 3 -5 -6 -8
-23 -5 l-29 4 55 -83 c31 -46 61 -87 68 -91 7 -5 6 -8 -3 -8 -11 0 -9 -6 6
-22 11 -13 37 -52 58 -88 21 -36 40 -67 42 -69 7 -10 16 12 38 101 13 51 29
94 34 96 5 2 7 10 4 18 -7 18 24 140 43 172 14 21 13 22 -16 22 -17 0 -29 -4
-26 -9z"/>
<path d="M4730 6278 c-31 -22 -80 -81 -53 -65 9 6 11 3 7 -7 -3 -9 -10 -14
-14 -11 -4 3 -13 -9 -19 -27 -14 -39 -14 -41 1 -32 7 4 8 3 4 -4 -4 -6 -13 -9
-21 -5 -16 6 -21 -12 -6 -21 5 -4 12 -24 16 -45 10 -57 56 -124 100 -145 46
-22 106 -17 147 14 16 11 33 18 37 15 11 -6 16 10 26 72 4 24 14 47 22 52 11
6 3 10 -28 15 -24 4 -55 10 -69 13 -20 5 -23 4 -14 -8 6 -8 10 -41 9 -73 -3
-67 -26 -97 -74 -95 -26 1 -26 1 4 9 l30 8 -31 1 c-51 2 -67 21 -72 90 -4 50
-1 62 12 67 13 5 14 9 5 20 -16 19 -3 97 22 128 11 14 30 26 41 26 44 0 98
-51 98 -94 0 -18 23 -37 35 -28 6 4 10 34 10 67 0 56 -1 60 -22 57 -12 -2 -35
4 -52 12 -44 23 -112 20 -151 -6z m20 -1 c0 -2 -15 -13 -32 -26 l-33 -22 28
25 c26 24 37 31 37 23z m195 -17 c-3 -5 -12 -10 -18 -10 -7 0 -6 4 3 10 19 12
23 12 15 0z"/>
<path d="M3579 6243 c-1 -5 -1 -12 0 -17 1 -5 -5 -3 -14 4 -13 11 -18 11 -28
0 -10 -10 -9 -11 2 -5 10 6 12 4 7 -4 -6 -9 -11 -9 -21 -1 -7 6 -19 8 -28 4
-14 -5 -13 -8 2 -23 10 -10 23 -45 31 -80 7 -34 17 -64 21 -67 15 -9 10 -24
-6 -18 -8 4 -15 2 -15 -4 0 -5 6 -12 13 -15 8 -3 20 -32 27 -66 7 -33 17 -58
21 -55 5 3 9 -5 9 -16 0 -15 -5 -20 -15 -17 -15 6 -32 -10 -21 -20 11 -11 136
19 136 33 0 8 -8 14 -19 14 -14 0 -21 14 -33 68 -8 37 -11 71 -7 77 13 13 11
25 -4 25 -15 0 -50 163 -36 168 5 2 9 8 9 13 0 11 -29 12 -31 2z"/>
<path d="M5370 6180 l25 -8 -25 -3 c-14 -1 -37 -3 -53 -4 -46 -3 -114 -85
-101 -120 6 -14 3 -16 -15 -10 -20 6 -21 4 -13 -12 5 -10 10 -38 11 -61 2 -62
33 -128 73 -152 39 -23 111 -26 148 -5 16 9 29 10 37 4 8 -7 16 5 28 43 20 61
33 80 48 71 6 -3 7 -1 3 5 -4 7 -13 12 -20 12 -8 0 -27 7 -42 15 -38 20 -71
20 -55 1 8 -10 7 -24 -4 -56 -8 -23 -13 -46 -10 -50 2 -4 -4 -15 -15 -25 -16
-15 -24 -15 -55 -5 -51 17 -69 49 -61 108 3 26 13 52 21 58 9 7 13 18 9 28
-14 37 45 136 82 136 39 0 84 -48 91 -97 4 -32 10 -43 23 -43 13 0 19 12 24
43 13 76 12 82 -7 79 -11 -2 -27 4 -37 13 -22 20 -87 44 -115 44 -16 -1 -15
-2 5 -9z m-60 -23 c0 -2 -15 -13 -32 -26 l-33 -22 28 25 c26 24 37 31 37 23z"/>
<path d="M3350 6169 c0 -5 6 -7 13 -3 6 4 9 3 4 -1 -4 -5 -30 -8 -57 -6 -58 3
-93 -6 -84 -21 5 -7 2 -8 -5 -4 -30 19 -83 -63 -75 -115 3 -19 1 -53 -4 -76
-6 -24 -6 -43 -2 -43 4 0 20 -18 35 -41 76 -109 228 -119 280 -19 8 16 22 30
29 30 12 0 12 9 0 56 -8 30 -12 65 -8 76 5 18 3 20 -12 13 -11 -4 -27 -8 -37
-9 -10 0 -16 -5 -13 -11 2 -7 -7 -10 -25 -7 -17 3 -29 0 -29 -7 0 -6 6 -11 14
-11 8 0 18 -22 27 -61 9 -42 15 -55 20 -42 4 10 8 13 8 6 1 -15 -20 -63 -28
-64 -58 -6 -79 -6 -93 2 -25 14 -61 87 -55 115 3 15 -1 24 -9 24 -16 0 -39 99
-30 133 13 52 93 54 145 3 26 -25 40 -33 50 -26 11 6 12 12 4 22 -6 7 -16 32
-22 56 -7 25 -18 42 -26 42 -8 0 -15 -5 -15 -11z m-166 -74 c-9 -14 -18 -25
-21 -25 -5 0 5 18 20 38 17 22 18 13 1 -13z"/>
<path d="M5647 6078 c2 -13 -7 -52 -21 -87 -14 -35 -23 -67 -21 -71 3 -5 -3
-6 -14 -3 -15 4 -18 0 -14 -19 2 -13 -5 -48 -16 -77 -11 -30 -18 -58 -15 -62
2 -4 -1 -11 -7 -15 -8 -4 -9 -3 -5 4 5 8 -1 12 -14 12 -12 0 -20 -5 -18 -11 3
-9 51 -31 194 -89 19 -8 26 -2 52 41 22 34 36 47 47 43 10 -4 15 0 15 10 0 22
-26 20 -66 -5 -32 -19 -49 -39 -21 -23 6 4 5 0 -3 -9 -8 -9 -28 -18 -45 -21
-22 -5 -25 -4 -10 2 17 8 14 10 -18 16 -20 4 -37 11 -37 15 0 21 45 118 62
133 10 9 14 19 9 22 -12 8 43 146 64 162 17 12 10 24 -14 24 -9 0 -29 7 -45
15 -38 20 -44 19 -39 -7z"/>
<path d="M3132 5990 c0 -14 2 -19 5 -12 2 6 2 18 0 25 -3 6 -5 1 -5 -13z"/>
<path d="M2803 5967 c3 -8 -5 -14 -22 -15 -82 -7 -141 -57 -141 -120 0 -28 3
-33 10 -22 8 11 9 9 5 -11 -5 -21 0 -31 25 -53 29 -24 38 -26 129 -26 107 0
120 -6 122 -54 l1 -31 8 30 c7 29 8 29 9 4 0 -14 -6 -34 -15 -45 -8 -10 -13
-14 -10 -7 4 7 -5 6 -24 -4 -37 -18 -67 -12 -121 24 -22 14 -45 23 -55 19 -14
-5 -13 -10 8 -35 14 -15 30 -43 38 -60 13 -31 35 -38 35 -10 0 9 15 16 46 19
51 6 93 29 110 61 15 30 6 115 -15 138 -12 13 -15 27 -11 40 3 12 2 21 -3 21
-15 0 -33 -26 -24 -36 4 -4 -1 -2 -11 5 -13 10 -38 12 -101 7 -70 -6 -86 -4
-100 9 -22 23 -20 50 7 75 27 27 81 23 126 -9 34 -25 51 -27 51 -6 0 8 -3 15
-7 15 -5 0 -16 20 -26 45 -11 25 -26 45 -34 45 -8 0 -13 -6 -10 -13z m-132
-91 c-9 -18 -18 -29 -19 -24 -4 8 24 58 32 58 2 0 -4 -15 -13 -34z"/>
<path d="M6005 5910 c16 -7 17 -9 3 -9 -9 -1 -25 -4 -35 -7 -15 -5 -15 -4 -3
5 8 6 10 11 4 11 -5 0 -19 -7 -30 -16 -10 -8 -13 -12 -5 -8 9 5 12 3 7 -5 -4
-6 -11 -9 -16 -6 -13 8 -52 -34 -44 -47 4 -7 3 -8 -4 -4 -7 4 -12 1 -12 -7 0
-11 -7 -13 -22 -9 -19 4 -21 3 -12 -9 9 -10 9 -28 2 -64 -19 -92 27 -184 101
-200 46 -10 109 13 156 56 23 21 47 39 52 39 11 0 15 32 17 138 1 73 1 74 -37
109 -23 20 -45 32 -53 29 -9 -3 -12 -1 -9 4 4 6 -11 10 -37 9 -33 0 -38 -2
-23 -9z m74 -35 c47 -24 49 -58 10 -136 -10 -20 -15 -39 -12 -43 4 -3 1 -6 -4
-6 -6 0 -14 6 -16 13 -5 11 -11 -27 -10 -60 0 -7 -4 -11 -11 -10 -6 1 -10 -6
-10 -16 2 -22 -51 -67 -79 -66 -20 1 -20 2 3 9 l25 8 -24 1 c-33 1 -61 29 -61
60 0 35 42 117 58 114 14 -3 16 13 2 22 -21 13 60 116 98 124 2 1 16 -6 31
-14z"/>
<path d="M5994 5588 l-19 -23 23 19 c21 18 27 26 19 26 -2 0 -12 -10 -23 -22z"/>
<path d="M4140 5899 c-454 -40 -896 -194 -1260 -439 -217 -146 -455 -363 -604
-550 -325 -409 -520 -886 -576 -1407 -18 -167 -8 -534 19 -687 76 -430 217
-777 453 -1112 186 -266 385 -461 703 -689 168 -121 512 -280 743 -344 287
-80 512 -107 821 -98 293 8 508 46 781 137 841 281 1509 1001 1725 1857 66
262 78 368 79 658 1 273 -5 339 -51 560 -165 795 -685 1469 -1417 1837 -435
219 -945 319 -1416 277z m46 -63 c29 -21 356 -25 380 -5 9 7 42 15 73 17 61 4
108 -12 144 -49 10 -11 27 -19 39 -19 11 0 37 -4 57 -9 20 -6 86 -22 146 -36
61 -15 118 -29 129 -32 10 -3 16 -1 13 5 -4 6 12 8 41 5 26 -2 49 -8 50 -13 2
-6 10 -10 18 -10 8 0 14 -5 14 -11 0 -5 5 -7 10 -4 6 3 10 -2 10 -12 0 -18 22
-30 125 -71 22 -9 42 -18 45 -21 3 -3 39 -24 80 -45 103 -54 102 -53 85 -86
l-15 -28 -149 75 c-110 56 -158 75 -183 74 -18 -1 -44 -3 -58 -4 -34 -3 -39
-39 -8 -54 15 -7 32 -34 50 -80 26 -64 31 -70 70 -83 49 -17 56 -34 16 -38
-16 -2 -28 -6 -28 -10 0 -4 -3 -16 -6 -28 -5 -20 -4 -21 73 -8 75 11 114 7
127 -15 9 -14 -45 -100 -129 -206 -120 -151 -126 -160 -113 -173 7 -7 18 -12
24 -12 12 0 97 84 142 140 37 46 34 13 -7 -84 -46 -107 -48 -121 -24 -130 23
-9 37 11 114 159 62 119 87 161 121 199 17 18 19 19 37 2 10 -9 22 -34 26 -54
14 -81 25 -102 53 -102 15 0 22 4 17 8 -6 4 -11 28 -13 55 l-3 47 136 0 c74 0
135 3 135 8 0 8 -41 42 -139 118 -115 89 -106 77 -86 107 11 17 22 24 33 20
15 -6 169 -128 241 -192 13 -11 28 -21 32 -21 5 0 6 -7 2 -16 -5 -14 -1 -16
20 -12 35 7 102 -52 94 -82 -3 -10 -2 -18 2 -17 3 1 7 -1 9 -5 1 -4 17 -23 35
-41 36 -37 97 -111 142 -172 16 -22 32 -42 36 -45 3 -3 9 -15 13 -27 4 -13 15
-23 25 -23 45 0 130 -126 116 -171 -4 -11 17 -63 51 -129 62 -123 96 -211 86
-222 -4 -4 -19 -9 -33 -13 -24 -6 -27 -2 -54 67 -15 40 -32 76 -37 79 -6 3 -9
9 -7 13 5 17 -77 156 -92 156 -8 0 -24 7 -35 15 -30 22 -48 19 -39 -7 9 -32 9
-34 -10 -120 -15 -71 -15 -79 0 -108 19 -38 16 -44 -16 -32 -23 9 -69 -3 -69
-17 0 -3 32 -23 70 -44 64 -35 90 -60 90 -85 0 -15 -110 -52 -273 -91 -152
-36 -170 -46 -148 -79 7 -11 26 -11 115 3 58 9 111 15 117 13 6 -2 -34 -28
-90 -58 -80 -44 -101 -59 -101 -77 0 -12 4 -24 9 -27 5 -4 67 19 138 50 133
58 257 104 279 104 27 0 25 -39 -6 -99 -16 -33 -30 -65 -30 -71 0 -17 42 -1
61 22 18 23 23 18 34 -29 4 -22 27 -51 71 -92 37 -33 69 -72 73 -88 10 -39 27
-35 51 11 18 36 19 47 9 110 -6 39 -22 113 -35 165 -13 52 -21 98 -16 103 4 4
18 9 32 10 20 3 26 -3 37 -36 15 -43 51 -216 55 -261 1 -16 12 -41 23 -55 35
-40 48 -86 41 -137 -3 -25 -11 -52 -17 -59 -16 -20 -19 -363 -3 -389 32 -53
24 -145 -17 -186 -25 -25 -38 -58 -41 -109 -1 -22 -6 -40 -10 -40 -4 0 -8 -10
-8 -22 0 -37 -52 -208 -63 -208 -6 0 -2 -7 9 -16 10 -8 12 -12 4 -8 -12 7 -13
5 -2 -8 24 -30 -23 -146 -55 -134 -16 7 -27 -11 -12 -20 6 -4 7 -9 2 -13 -5
-3 -27 -44 -48 -91 -21 -47 -44 -92 -51 -100 -6 -8 -24 -39 -38 -67 -14 -29
-31 -53 -37 -53 -17 0 -49 20 -49 31 0 6 21 50 48 97 81 149 104 209 96 260
-8 53 -28 64 -57 30 -23 -26 -116 -78 -141 -78 -7 0 -16 -12 -19 -27 -13 -57
-47 -70 -47 -19 0 24 -35 43 -46 25 -3 -5 0 -43 6 -85 10 -65 9 -78 -5 -100
l-16 -25 -37 22 c-55 33 -98 65 -215 156 -58 46 -108 83 -111 83 -3 0 -10 -10
-17 -21 -10 -19 -3 -29 75 -101 48 -44 85 -82 82 -85 -2 -2 -49 14 -103 36
-110 45 -128 49 -137 25 -8 -21 4 -29 139 -99 128 -66 235 -135 235 -151 0
-22 -37 -43 -98 -54 -34 -7 -65 -16 -67 -21 -10 -16 26 -38 53 -33 l27 6 -3
-146 c-2 -98 0 -146 7 -146 14 0 73 63 118 128 20 28 39 52 43 52 4 0 20 18
35 40 31 45 44 49 70 20 18 -20 17 -21 -15 -68 -19 -26 -38 -49 -42 -50 -5 -2
-22 -24 -39 -49 -17 -25 -44 -58 -60 -73 -16 -15 -29 -33 -29 -39 0 -7 -4 -10
-9 -6 -5 3 -12 1 -16 -5 -4 -6 -11 -8 -16 -5 -5 4 -9 2 -9 -4 0 -5 5 -13 11
-17 7 -4 8 -9 1 -13 -5 -3 -17 -23 -26 -44 -15 -38 -57 -63 -98 -61 -10 1 -18
-4 -18 -10 0 -6 -30 -33 -65 -61 -36 -27 -76 -58 -88 -69 -12 -10 -38 -30 -57
-45 -19 -14 -38 -30 -41 -34 -3 -5 -10 -7 -14 -5 -5 1 -12 -10 -16 -26 -17
-63 -85 -106 -174 -111 -36 -2 -68 -13 -113 -39 -65 -37 -170 -84 -208 -93
-15 -3 -23 2 -32 22 -7 14 -12 28 -12 30 0 6 77 41 110 51 43 12 210 107 210
119 0 7 9 24 20 38 23 29 14 41 -24 31 -13 -3 -59 2 -100 11 -73 16 -89 16
-128 0 -15 -6 -17 -3 -12 21 3 17 0 37 -9 48 -13 17 -16 14 -51 -47 -36 -64
-59 -87 -89 -87 -18 0 -49 84 -77 205 -44 191 -52 215 -72 215 -10 0 -21 -7
-25 -16 -5 -14 7 -120 24 -208 5 -21 3 -27 -6 -22 -7 5 -15 15 -19 25 -4 9
-27 51 -50 93 -31 56 -49 78 -63 78 -11 0 -22 -6 -25 -13 -3 -8 27 -88 66
-179 77 -181 90 -241 53 -246 -12 -2 -49 11 -82 28 l-61 30 0 -24 c0 -13 7
-29 15 -36 22 -18 18 -28 -13 -35 -19 -4 -53 -33 -96 -80 -49 -54 -75 -75 -92
-75 -37 0 -28 -24 16 -44 26 -11 52 -15 77 -11 72 11 188 34 243 49 30 8 56
14 56 13 1 -1 5 -16 9 -34 7 -36 15 -33 -170 -73 -55 -12 -111 -24 -125 -27
-14 -4 -31 -5 -37 -4 -7 1 -13 -5 -13 -14 0 -18 -79 -55 -119 -55 -15 0 -45 9
-66 20 -35 18 -61 21 -207 22 -103 0 -173 -3 -180 -10 -27 -21 -97 -33 -136
-23 -42 12 -105 54 -95 64 3 4 -3 7 -15 7 -26 0 -231 47 -290 66 -24 8 -48 11
-54 8 -32 -20 -158 12 -143 36 3 6 -1 7 -10 4 -9 -4 -15 -3 -13 2 2 5 -1 10
-6 11 -5 0 -13 8 -18 17 -5 9 -14 16 -20 16 -12 0 -266 126 -285 141 -10 9 -9
17 3 40 l15 30 94 -51 c146 -79 222 -107 278 -102 37 3 47 8 47 22 0 10 -10
24 -23 33 -13 8 -38 49 -57 91 -22 46 -41 75 -51 76 -8 0 -24 6 -34 14 -17 13
-17 14 11 27 16 8 30 22 32 32 3 17 -1 18 -55 11 -83 -12 -122 -10 -139 8 -15
14 -13 21 21 74 20 31 77 109 126 171 49 63 89 120 89 128 0 7 -8 16 -17 20
-14 5 -38 -14 -100 -82 -46 -48 -83 -82 -83 -75 0 7 19 59 41 114 40 97 41
102 23 115 -24 17 -25 16 -112 -147 -67 -127 -127 -220 -142 -220 -17 0 -48
51 -54 91 -8 53 -22 79 -43 79 -13 0 -14 -8 -9 -50 l7 -50 -79 0 c-44 0 -106
-3 -140 -6 -70 -8 -75 1 63 -108 141 -112 132 -102 110 -126 -10 -11 -24 -20
-30 -20 -12 0 -182 130 -239 183 -16 15 -34 24 -40 20 -6 -4 -3 6 8 22 10 17
13 24 5 18 -7 -7 -21 -13 -30 -13 -24 0 -89 39 -89 53 0 6 -10 22 -22 35 -13
14 -18 22 -11 18 7 -4 11 1 10 13 -1 15 -5 17 -18 10 -13 -7 -16 -5 -13 9 3
10 -15 37 -46 70 -27 29 -50 56 -50 61 0 5 -7 15 -16 22 -9 7 -34 39 -55 71
-23 34 -47 58 -57 58 -24 0 -78 57 -97 103 -9 21 -15 56 -13 78 1 31 -3 43
-20 55 -12 8 -20 19 -17 23 2 5 -16 49 -40 99 -25 50 -45 95 -45 99 0 4 -6 20
-14 34 -13 26 -12 27 20 37 33 10 34 9 50 -26 62 -142 139 -282 155 -282 10 0
24 -7 33 -15 21 -22 50 -20 41 3 -3 9 -7 19 -8 22 -2 10 15 106 25 141 8 28 7
42 -6 66 -16 32 -11 50 10 32 15 -12 64 -1 64 15 0 6 -21 22 -47 36 -64 34
-103 68 -103 90 0 22 88 53 287 100 73 18 135 36 138 41 3 5 1 18 -5 30 -9 16
-18 19 -37 14 -37 -9 -207 -34 -211 -30 -2 1 43 28 100 60 57 31 105 59 106
60 9 8 -11 45 -24 45 -8 0 -74 -27 -147 -59 -209 -92 -277 -109 -277 -66 0 9
14 42 30 75 17 33 30 63 30 68 0 16 -50 0 -61 -19 -13 -25 -29 -24 -29 2 0 32
-14 52 -84 119 -36 34 -66 72 -68 83 -5 37 -32 30 -51 -13 -23 -49 -14 -120
40 -315 12 -45 12 -51 -4 -62 -21 -16 -38 -16 -50 0 -10 12 -38 130 -63 267
-7 36 -18 70 -25 75 -42 35 -58 135 -31 188 19 35 25 369 7 390 -6 8 -14 35
-17 61 -8 52 16 128 46 149 12 8 21 37 30 87 13 81 54 233 72 264 8 16 7 22
-8 33 -10 7 -13 13 -6 13 6 0 11 10 10 23 -2 52 4 70 31 98 16 16 26 29 23 29
-4 0 -2 4 4 8 13 8 108 203 106 215 -1 4 2 7 6 7 5 0 19 23 32 50 24 51 41 60
72 37 15 -12 10 -27 -63 -173 -48 -96 -76 -165 -72 -174 3 -8 7 -27 8 -41 4
-55 31 -65 56 -20 11 19 30 32 63 42 25 7 46 17 46 20 0 4 14 11 31 14 21 5
27 10 19 15 -10 6 -8 15 6 39 23 39 31 39 39 1 5 -25 38 -50 50 -38 2 2 -1 38
-7 80 -12 84 -6 128 18 128 22 0 112 -60 241 -161 63 -49 118 -89 123 -89 5 0
14 9 19 19 9 16 -2 31 -77 101 -99 93 -93 97 56 33 80 -35 83 -35 97 -17 19
26 14 30 -151 117 -248 129 -269 161 -129 192 74 17 75 17 75 49 0 17 -4 26
-8 20 -4 -7 -23 -14 -42 -15 l-35 -4 3 72 c5 90 -7 225 -19 217 -11 -6 -186
-221 -198 -242 -8 -14 -12 -15 -35 -2 -14 7 -26 19 -26 26 0 6 18 36 40 65 21
29 37 56 34 61 -3 5 -1 7 5 6 15 -4 142 152 134 165 -4 7 1 6 10 -2 15 -12 17
-11 17 8 0 51 37 87 100 97 43 8 44 8 15 15 -19 4 -23 7 -10 8 11 1 36 15 55
31 94 80 190 156 233 183 15 10 25 22 22 27 -18 30 131 129 174 115 20 -6 74
18 64 29 -4 4 0 4 10 0 10 -3 17 -1 17 5 0 6 7 11 16 11 9 0 33 9 53 19 73 38
176 79 183 73 4 -4 10 -19 13 -34 6 -23 3 -28 -32 -43 -161 -71 -273 -131
-273 -145 0 -9 -9 -26 -20 -38 -11 -12 -20 -26 -20 -31 0 -17 20 -23 34 -12
10 9 35 7 98 -7 83 -19 85 -19 122 0 l38 19 -7 -30 c-7 -33 1 -71 15 -71 4 0
25 29 45 65 36 66 79 106 94 89 15 -17 51 -131 76 -240 44 -196 48 -204 80
-180 18 13 18 18 1 126 -10 61 -15 114 -13 116 2 2 30 -43 62 -102 41 -75 62
-104 72 -100 8 3 19 6 24 6 16 0 10 17 -47 148 -63 144 -107 269 -99 283 11
16 44 10 105 -21 33 -16 62 -30 66 -30 14 0 -8 54 -29 70 l-22 18 39 7 c30 6
54 23 111 81 45 47 80 74 93 74 36 0 25 24 -21 45 -38 18 -48 19 -107 9 -108
-20 -224 -46 -241 -55 -10 -5 -20 -4 -27 3 -16 16 -15 58 1 62 6 2 35 11 64
20 28 9 67 18 85 21 121 18 179 32 190 47 7 10 24 22 38 27 39 15 133 13 156
-3z"/>
<path d="M4199 5734 c-7 -9 -23 -20 -36 -25 -31 -12 -29 -35 5 -42 15 -3 55
-29 89 -56 86 -71 114 -70 223 4 44 30 92 55 105 55 35 0 39 15 7 36 -15 10
-33 24 -40 31 -10 10 -55 13 -176 13 -138 0 -166 -3 -177 -16z"/>
<path d="M4755 5706 c-11 -7 -29 -15 -40 -17 -11 -3 -20 -11 -20 -19 0 -8 9
-17 20 -18 11 -2 43 -34 72 -70 44 -57 60 -69 102 -83 46 -14 53 -14 83 1 61
31 103 43 144 42 59 -3 65 20 16 68 -39 39 -46 42 -207 78 -145 33 -149 33
-170 18z"/>
<path d="M4190 5570 c0 -5 7 -10 15 -10 8 0 15 5 15 10 0 6 -7 10 -15 10 -8 0
-15 -4 -15 -10z"/>
<path d="M4525 5570 c-3 -5 1 -10 9 -10 9 0 16 5 16 10 0 6 -4 10 -9 10 -6 0
-13 -4 -16 -10z"/>
<path d="M4000 5555 c-10 -13 -9 -15 9 -15 12 0 21 6 21 15 0 8 -4 15 -9 15
-5 0 -14 -7 -21 -15z"/>
<path d="M4720 5551 c0 -5 5 -13 10 -16 6 -3 10 -2 10 4 0 5 -4 13 -10 16 -5
3 -10 2 -10 -4z"/>
<path d="M5035 5487 c-10 -8 -14 -16 -9 -19 23 -13 42 -15 54 -8 11 7 11 11 1
24 -16 19 -22 20 -46 3z"/>
<path d="M5213 5424 c-7 -18 12 -34 40 -34 14 0 16 4 7 19 -7 14 -6 21 3 24 6
3 -1 6 -16 6 -17 1 -30 -5 -34 -15z"/>
<path d="M2898 5285 c-42 -28 -155 -116 -205 -159 -12 -10 -20 -23 -17 -28 3
-4 65 -8 139 -8 l134 0 26 83 c15 45 36 92 47 104 27 29 19 37 -36 38 -33 0
-55 -7 -88 -30z"/>
<path d="M3190 5270 c0 -5 6 -10 14 -10 8 0 18 5 21 10 3 6 -3 10 -14 10 -12
0 -21 -4 -21 -10z"/>
<path d="M3035 5179 c-4 -6 -5 -13 -2 -16 7 -7 27 6 27 18 0 12 -17 12 -25 -2z"/>
<path d="M2788 5013 c12 -2 30 -2 40 0 9 3 -1 5 -23 4 -22 0 -30 -2 -17 -4z"/>
<path d="M5868 5003 c7 -3 16 -2 19 1 4 3 -2 6 -13 5 -11 0 -14 -3 -6 -6z"/>
<path d="M4260 4993 c-296 -21 -544 -93 -780 -228 -371 -212 -658 -553 -795
-946 -72 -208 -97 -358 -96 -589 0 -219 22 -357 87 -550 189 -566 656 -999
1235 -1146 464 -117 960 -42 1361 207 390 242 667 613 781 1049 45 172 52 233
51 460 0 244 -14 332 -84 541 -197 593 -709 1046 -1320 1169 -87 17 -352 44
-385 38 -5 -1 -30 -3 -55 -5z m418 -88 c166 -34 288 -75 425 -144 482 -243
804 -659 919 -1191 19 -92 22 -134 22 -335 1 -258 -11 -340 -81 -545 -204
-604 -748 -1052 -1383 -1140 -110 -15 -352 -16 -460 -1 -195 27 -408 97 -575
187 -509 278 -832 756 -894 1326 -49 444 89 904 375 1248 302 364 698 573
1179 624 105 11 349 -4 473 -29z"/>
<path d="M4260 4824 c0 -11 8 -14 27 -12 39 4 42 28 4 28 -21 0 -31 -5 -31
-16z"/>
<path d="M4380 4825 c0 -10 10 -15 30 -15 20 0 30 5 30 15 0 10 -10 15 -30 15
-20 0 -30 -5 -30 -15z"/>
<path d="M4140 4814 c0 -11 8 -14 27 -12 39 4 42 28 4 28 -21 0 -31 -5 -31
-16z"/>
<path d="M4502 4818 c7 -20 58 -23 58 -4 0 11 -10 16 -31 16 -20 0 -29 -4 -27
-12z"/>
<path d="M4038 4813 c-20 -5 -23 -18 -8 -28 15 -9 52 5 47 18 -4 13 -16 16
-39 10z"/>
<path d="M4620 4806 c0 -17 35 -30 51 -20 9 5 6 11 -6 21 -24 17 -45 17 -45
-1z"/>
<path d="M3910 4780 c-21 -13 0 -31 28 -24 12 4 22 13 22 20 0 16 -28 18 -50
4z"/>
<path d="M4740 4776 c0 -7 10 -16 22 -19 27 -7 32 -3 25 18 -8 19 -47 20 -47
1z"/>
<path d="M3808 4749 c-25 -14 -22 -31 4 -27 13 2 24 11 26 21 4 19 -5 21 -30
6z"/>
<path d="M4854 4748 c-4 -5 0 -14 7 -19 20 -13 51 -11 47 3 -6 17 -46 29 -54
16z"/>
<path d="M4120 4716 c-331 -51 -623 -205 -858 -451 -198 -207 -326 -450 -388
-735 -27 -122 -27 -458 0 -580 43 -200 132 -410 239 -564 51 -73 54 -82 41
-100 -24 -35 -17 -46 29 -46 37 0 48 -6 82 -41 104 -107 271 -232 393 -293 99
-50 254 -105 371 -133 105 -24 135 -27 311 -27 145 0 218 5 283 18 290 57 564
201 781 410 71 69 82 76 118 76 22 0 48 -5 59 -10 14 -8 25 -7 41 5 13 8 36
15 53 15 51 0 62 13 39 47 -10 15 -19 37 -19 48 0 14 -6 19 -21 18 -12 -1 -32
9 -45 23 -23 24 -23 26 -6 52 32 50 97 181 128 258 170 429 114 948 -144 1343
-221 337 -554 566 -952 653 -117 25 -411 33 -535 14z m547 -76 c417 -95 781
-378 971 -757 47 -93 98 -240 124 -353 20 -90 23 -132 22 -295 0 -207 -13
-293 -71 -463 l-28 -83 -115 -7 c-147 -9 -616 -8 -654 2 l-29 7 29 31 c16 16
81 67 144 113 192 140 269 228 317 366 22 64 26 96 31 239 6 212 -5 399 -24
407 -24 9 -74 -18 -90 -49 -9 -17 -20 -73 -25 -126 -30 -310 -31 -318 -91
-394 -29 -37 -206 -184 -213 -177 -2 3 16 36 40 74 60 94 99 217 93 286 -5 43
-11 58 -37 81 -41 37 -58 35 -66 -4 -26 -116 -107 -231 -290 -413 -159 -158
-187 -201 -210 -331 -8 -44 -14 -132 -15 -196 l0 -118 -42 0 c-24 0 -93 -3
-154 -6 l-111 -7 -6 164 c-9 264 -24 298 -226 499 -164 162 -236 261 -271 370
-13 41 -28 70 -36 70 -8 0 -28 -13 -46 -29 -31 -27 -33 -34 -33 -93 0 -83 36
-190 91 -274 24 -37 42 -69 39 -72 -6 -6 -140 101 -194 157 -60 61 -79 110
-91 232 -6 57 -15 143 -20 191 -10 98 -27 139 -65 156 -42 19 -54 15 -62 -25
-14 -66 -9 -492 5 -558 35 -152 135 -280 327 -415 60 -43 119 -87 129 -99 23
-25 53 -23 -306 -25 -141 0 -260 -4 -264 -9 -4 -4 23 -52 60 -107 38 -55 70
-109 73 -120 6 -21 -53 -110 -73 -110 -27 0 -141 195 -197 335 -107 268 -130
576 -66 856 122 529 539 946 1075 1075 191 46 458 47 651 4z m-912 -1948 c6
-4 19 -20 29 -36 24 -37 19 -39 -112 -60 -59 -10 -123 -22 -143 -27 -63 -16
-68 -29 -71 -179 l-3 -135 -65 -3 c-76 -4 -110 3 -110 22 0 8 -8 17 -17 22
-13 6 -4 10 32 14 l50 7 -57 1 c-31 1 -60 7 -63 12 -4 6 11 35 33 64 22 29 42
61 44 72 3 12 -16 49 -49 97 -29 43 -53 82 -53 87 0 4 -7 10 -15 14 -8 3 -15
12 -15 21 0 13 36 15 288 15 158 0 292 -4 297 -8z m1420 -38 c131 -4 257 -2
334 5 68 6 126 9 130 6 3 -3 0 -14 -7 -23 -7 -9 -16 -27 -22 -39 -7 -17 -19
-23 -42 -24 -24 -1 -27 -3 -10 -6 23 -5 31 -23 9 -23 -14 0 -41 -57 -37 -80 1
-8 7 -18 12 -21 12 -8 -71 -122 -100 -138 -9 -6 -13 -11 -8 -11 5 0 3 -7 -4
-15 -9 -11 -34 -15 -93 -15 l-80 0 5 130 c7 175 6 176 -183 185 -166 8 -229
15 -229 25 0 5 5 21 10 36 10 25 13 26 58 20 26 -3 142 -9 257 -12z m-1360
-64 c3 -6 -4 -14 -17 -19 -23 -10 -22 -10 5 -10 23 -1 27 -5 27 -30 0 -16 3
-36 6 -45 5 -14 -11 -16 -140 -16 -105 0 -156 4 -181 14 -73 31 -32 57 140 89
158 30 152 29 160 17z m1225 -25 c177 -7 190 -10 190 -35 0 -34 -32 -40 -224
-40 l-186 0 0 30 c0 28 3 30 38 32 36 1 36 1 5 5 -18 2 -33 9 -33 15 0 6 13 8
33 5 17 -4 97 -9 177 -12z m556 -50 c-24 -40 -46 -58 -46 -37 0 13 62 93 67
88 3 -3 -7 -26 -21 -51z m-361 -187 c0 -84 2 -157 4 -163 14 -30 8 -57 -15
-67 -13 -6 -24 -15 -24 -19 0 -5 -13 -15 -28 -23 -23 -12 -159 -16 -825 -22
-742 -7 -797 -6 -803 10 -4 9 -21 23 -39 30 -31 14 -33 16 -30 63 5 100 5 99
14 85 7 -12 12 -12 30 0 18 11 23 11 31 -1 7 -12 11 -12 23 -2 11 9 17 9 22 1
11 -17 106 -6 117 14 12 21 38 21 38 0 0 -12 6 -15 21 -11 12 3 30 0 40 -6 15
-10 25 -9 47 3 33 19 39 45 17 70 -17 19 -16 20 9 29 47 18 22 50 -29 37 -29
-7 -44 -50 -26 -77 16 -26 14 -29 -13 -29 -23 0 -23 2 -15 47 11 55 -1 77 -28
51 -15 -16 -18 -16 -28 -1 -10 14 -13 14 -28 -2 -10 -9 -23 -37 -29 -61 -13
-47 -15 -49 -38 -34 -13 8 -13 13 3 39 9 16 17 39 17 50 0 33 -29 25 -47 -14
-16 -35 -41 -50 -29 -19 9 23 -2 54 -19 54 -16 0 -58 -51 -77 -95 -12 -27 -13
-20 -16 84 -1 62 -1 115 0 117 2 1 39 -2 83 -8 52 -7 246 -8 550 -4 613 8
1089 18 1094 22 22 19 26 -7 26 -148z m410 16 c14 -19 33 -34 41 -34 7 0 14
-6 14 -14 0 -10 -25 -15 -96 -20 -53 -4 -98 -6 -99 -4 -12 12 17 27 57 30 25
2 44 7 41 11 -3 5 -15 7 -26 5 -31 -4 -33 9 -8 43 25 34 40 30 76 -17z m-2445
-74 c0 -5 -9 -10 -21 -10 -11 0 -17 5 -14 10 3 6 13 10 21 10 8 0 14 -4 14
-10z m2167 -28 c15 -9 9 -19 -45 -67 -50 -45 -62 -38 -62 33 l0 42 48 0 c26 0
52 -4 59 -8z m-1919 -18 c16 -5 13 -96 -3 -101 -14 -4 -127 96 -120 107 5 8
92 4 123 -6z m1662 -210 c0 -7 -131 -75 -201 -104 -180 -75 -358 -110 -558
-110 -167 0 -302 21 -455 71 -105 34 -265 106 -291 130 -5 5 156 10 395 10
223 1 558 5 745 8 314 6 365 5 365 -5z"/>
<path d="M4090 4558 c-18 -19 -21 -31 -16 -65 6 -46 3 -49 -56 -44 -22 2 -30
-5 -46 -36 -28 -56 -33 -87 -18 -108 12 -17 17 -18 41 -7 15 7 30 10 33 7 3
-3 -7 -106 -22 -228 -33 -263 -32 -281 8 -285 16 -2 32 0 36 5 5 4 16 64 24
133 23 178 27 200 37 200 5 0 9 -70 9 -158 0 -142 2 -161 19 -176 18 -17 49
-13 63 8 4 6 8 113 8 239 0 125 4 227 8 227 5 0 18 -9 30 -20 26 -25 28 -61 6
-138 -12 -41 -15 -83 -12 -166 5 -132 16 -158 61 -154 31 3 32 4 29 48 -7 130
-4 228 7 254 30 73 61 -63 43 -190 -14 -95 -8 -114 34 -114 30 0 40 19 53 111
12 78 4 174 -20 236 -20 51 7 131 44 133 4 0 7 -103 7 -229 0 -226 0 -230 22
-245 19 -13 25 -14 43 -2 19 12 20 25 23 175 1 90 7 161 12 161 11 0 15 -25
35 -185 18 -153 19 -157 59 -153 28 3 31 7 34 38 2 20 -9 126 -23 236 -30 244
-31 248 -7 239 43 -18 52 -17 63 8 10 21 7 34 -15 82 -24 53 -28 57 -53 52
-46 -9 -62 7 -56 52 7 50 -21 81 -72 81 -51 0 -78 -33 -71 -86 5 -37 3 -42
-20 -53 -28 -12 -44 -7 -44 15 0 25 -38 54 -73 54 -35 0 -77 -30 -77 -55 0
-21 -16 -26 -44 -14 -23 11 -25 16 -20 53 7 53 -20 86 -71 86 -23 0 -41 -8
-55 -22z m170 -209 c0 -6 -4 -7 -10 -4 -5 3 -10 11 -10 16 0 6 5 7 10 4 6 -3
10 -11 10 -16z m202 -1 c-7 -7 -12 -8 -12 -2 0 6 3 14 7 17 3 4 9 5 12 2 2 -3
-1 -11 -7 -17z"/>
<path d="M4227 3759 c-20 -5 -60 -20 -88 -34 -251 -128 -301 -466 -98 -660 32
-31 84 -68 116 -83 52 -23 70 -26 168 -27 99 0 116 3 168 27 127 60 228 197
242 332 30 280 -233 510 -508 445z m173 -59 c37 -10 67 -44 49 -56 -6 -3 -19
2 -29 11 -16 14 -23 15 -34 6 -13 -11 -12 -15 5 -32 23 -23 25 -39 3 -39 -12
0 -15 -7 -11 -27 4 -20 -2 -37 -19 -60 -29 -38 -30 -80 -4 -112 16 -19 26 -22
53 -17 50 9 66 -11 72 -89 9 -109 49 -125 96 -38 16 29 26 59 23 67 -3 7 4 28
15 47 11 18 18 36 15 41 -6 10 14 38 26 38 14 0 20 -85 10 -140 -12 -63 -42
-129 -79 -172 -37 -45 -109 -88 -148 -88 -18 0 -51 -7 -73 -16 -56 -22 -123
-14 -158 19 -20 18 -34 24 -53 20 -21 -4 -35 4 -75 44 -59 59 -92 122 -104
199 -9 51 -4 134 7 134 6 0 56 -33 71 -47 6 -6 12 -26 12 -44 0 -17 8 -46 19
-63 10 -17 21 -59 24 -95 3 -38 12 -70 21 -79 15 -15 16 -14 16 14 0 20 9 39
25 54 14 13 25 29 25 36 0 7 7 17 16 22 23 13 44 78 31 91 -6 6 -17 11 -24 11
-7 0 -22 9 -32 19 -31 31 -81 53 -106 47 -18 -5 -25 -1 -30 15 -4 11 -4 23 -1
26 3 4 1 12 -5 20 -9 10 -8 13 3 13 7 0 22 15 33 33 10 17 36 49 56 70 33 33
37 41 26 58 -15 24 1 42 40 41 15 0 37 7 48 14 23 16 95 18 145 4z m110 -50
c0 -5 -7 -10 -16 -10 -8 0 -12 5 -9 10 3 6 10 10 16 10 5 0 9 -4 9 -10z m-30
-85 c0 -9 -9 -15 -25 -15 -24 0 -32 10 -18 23 12 13 43 7 43 -8z m88 -35 c6 0
12 -5 12 -10 0 -7 -14 -9 -37 -5 -62 10 -67 13 -54 29 10 12 16 12 39 0 15 -8
33 -14 40 -14z"/>
<path d="M4615 3266 c-9 -14 -15 -33 -12 -43 3 -13 8 -8 21 21 20 45 15 59 -9
22z"/>
<path d="M5493 2533 c9 -2 23 -2 30 0 6 3 -1 5 -18 5 -16 0 -22 -2 -12 -5z"/>
<path d="M5184 2362 c-6 -4 -19 -28 -29 -54 -10 -27 -20 -48 -22 -48 -3 0 -2
20 1 44 12 75 -33 75 -74 1 -24 -44 -48 -44 -28 1 24 52 -33 76 -70 29 l-19
-24 -12 25 c-24 54 -111 -4 -111 -75 0 -55 57 -70 87 -24 l17 26 6 -24 c7 -30
42 -37 76 -15 21 15 24 15 24 1 0 -20 9 -19 33 2 18 17 19 17 29 0 7 -14 13
-15 23 -7 9 8 15 8 20 0 10 -17 75 -13 75 5 0 9 -7 18 -15 21 -12 5 -13 10 -4
20 6 8 8 14 3 14 -4 0 -3 5 4 12 13 13 17 78 5 78 -5 0 -13 -4 -19 -8z m-299
-91 c-7 -32 -25 -43 -25 -16 0 17 22 56 28 50 2 -2 1 -17 -3 -34z m105 -21 c0
-5 -5 -10 -11 -10 -5 0 -7 5 -4 10 3 6 8 10 11 10 2 0 4 -4 4 -10z"/>
<path d="M4037 2334 c-15 -15 -27 -31 -27 -36 0 -4 -11 -6 -25 -2 -30 7 -75
-2 -75 -16 0 -6 20 -10 45 -10 37 0 45 -3 45 -18 0 -39 48 -55 85 -28 17 12
21 12 32 -3 12 -15 14 -14 28 4 9 11 20 36 26 57 13 49 29 49 25 1 -2 -21 1
-46 6 -56 13 -25 28 -11 68 60 24 42 29 58 20 67 -9 8 -17 4 -34 -16 -26 -33
-36 -35 -36 -9 0 18 -35 35 -52 25 -5 -3 -18 -24 -29 -46 -14 -28 -23 -37 -29
-29 -11 19 -46 9 -42 -12 3 -18 -13 -23 -23 -7 -11 18 19 50 45 48 21 -3 25 1
25 22 0 37 -43 39 -78 4z"/>
<path d="M4318 2343 c-21 -25 -52 -109 -44 -122 14 -22 37 4 56 66 11 36 20
67 20 69 0 10 -18 2 -32 -13z"/>
<path d="M4485 2335 c-23 -22 -25 -23 -25 -5 0 25 -26 26 -39 3 -9 -17 -11
-17 -24 1 -14 19 -15 19 -32 -7 -20 -32 -33 -107 -17 -107 6 0 15 8 21 18 9
16 10 16 16 0 10 -27 34 -22 47 10 10 24 12 25 16 7 11 -48 52 -60 90 -25 30
28 30 62 0 58 -16 -2 -22 -9 -20 -20 2 -11 -3 -18 -13 -18 -18 0 -19 13 -4 41
7 13 18 19 37 17 19 -2 27 2 30 16 8 40 -47 48 -83 11z"/>
<path d="M4649 2331 c-22 -23 -29 -39 -29 -70 0 -35 3 -41 25 -47 16 -4 35 0
52 11 24 16 27 16 38 1 7 -9 24 -16 38 -16 31 0 46 30 17 37 -19 5 -19 5 0 44
24 46 25 69 4 69 -8 0 -24 -20 -35 -46 -17 -37 -23 -43 -35 -33 -18 15 -45 4
-38 -16 4 -10 0 -15 -10 -15 -20 0 -21 33 -1 50 8 6 23 9 35 5 25 -8 38 18 20
40 -19 23 -49 18 -81 -14z"/>
<path d="M4646 2174 c-10 -25 -7 -79 3 -68 14 14 25 84 13 84 -5 0 -13 -7 -16
-16z"/>
<path d="M5040 2175 c0 -8 5 -15 10 -15 6 0 10 7 10 15 0 8 -4 15 -10 15 -5 0
-10 -7 -10 -15z"/>
<path d="M4316 2173 c-9 -10 -7 -53 3 -53 11 0 21 49 11 55 -4 2 -10 2 -14 -2z"/>
<path d="M4412 2159 c-6 -15 -11 -18 -16 -11 -11 19 -25 14 -23 -8 2 -32 53
-28 59 5 7 33 -10 43 -20 14z"/>
<path d="M4544 2169 c-3 -5 -14 -9 -25 -9 -14 0 -19 -7 -18 -27 0 -28 1 -28
11 -5 13 25 28 29 28 7 0 -8 5 -15 10 -15 6 0 10 7 10 15 0 8 5 15 10 15 6 0
10 -9 10 -20 0 -13 5 -18 15 -14 8 4 15 12 15 19 0 17 -58 47 -66 34z"/>
<path d="M5188 2163 c7 -3 16 -2 19 1 4 3 -2 6 -13 5 -11 0 -14 -3 -6 -6z"/>
<path d="M4277 2140 c-3 -11 -1 -20 4 -20 5 0 9 2 9 4 0 2 3 11 6 20 3 9 2 16
-4 16 -5 0 -12 -9 -15 -20z"/>
<path d="M4444 2145 c-8 -20 3 -34 24 -31 9 2 18 13 20 24 3 17 -2 22 -18 22
-11 0 -23 -7 -26 -15z"/>
<path d="M4677 2140 c-6 -25 2 -26 19 -2 13 16 14 16 20 -5 3 -13 10 -20 15
-17 5 3 7 10 4 15 -4 5 1 9 9 9 9 0 16 -4 16 -8 0 -5 18 -9 40 -10 33 -2 40 1
40 17 0 18 -8 20 -79 20 -70 0 -79 -2 -84 -19z"/>
<path d="M4876 2144 c-3 -9 1 -25 9 -37 13 -18 15 -19 21 -4 3 9 15 17 26 17
10 0 16 5 13 10 -3 6 0 10 9 10 8 0 16 -5 18 -12 2 -6 14 -12 26 -13 18 -1 22
4 21 24 0 24 -1 24 -9 6 -7 -17 -9 -17 -9 -2 -1 13 -10 17 -46 17 -38 0 -47
-4 -56 -22 l-10 -23 5 23 c5 25 -9 30 -18 6z"/>
<path d="M3693 4703 c-17 -6 -17 -33 0 -33 14 0 37 20 37 32 0 9 -18 9 -37 1z"/>
<path d="M4965 4701 c-6 -10 25 -31 44 -31 17 0 13 27 -5 34 -22 8 -32 8 -39
-3z"/>
<path d="M3583 4653 c-15 -5 -18 -33 -4 -33 21 0 41 13 41 26 0 14 -14 17 -37
7z"/>
<path d="M5077 4653 c-11 -10 13 -33 34 -33 25 0 24 16 0 30 -23 12 -26 12
-34 3z"/>
<path d="M3477 4588 c-27 -21 -7 -42 21 -22 12 8 22 19 22 25 0 13 -23 11 -43
-3z"/>
<path d="M5180 4586 c0 -15 37 -32 47 -22 9 8 -17 36 -33 36 -8 0 -14 -6 -14
-14z"/>
<path d="M3383 4523 c-17 -6 -17 -33 0 -33 14 0 37 20 37 32 0 9 -18 9 -37 1z"/>
<path d="M5280 4517 c0 -17 37 -39 45 -26 8 13 -13 39 -31 39 -8 0 -14 -6 -14
-13z"/>
<path d="M3286 4441 c-12 -14 -14 -21 -6 -26 17 -10 47 22 34 35 -7 7 -16 4
-28 -9z"/>
<path d="M5374 4448 c-7 -10 20 -38 38 -38 12 0 10 24 -4 38 -15 15 -25 15
-34 0z"/>
<path d="M3193 4355 c-3 -9 -3 -18 0 -22 10 -10 37 6 37 22 0 20 -29 20 -37 0z"/>
<path d="M5462 4358 c6 -16 36 -34 44 -25 9 9 -15 37 -33 37 -8 0 -13 -5 -11
-12z"/>
<path d="M3115 4270 c-17 -18 -17 -20 0 -26 17 -7 35 10 35 34 0 18 -14 15
-35 -8z"/>
<path d="M5545 4280 c-8 -13 13 -40 31 -40 17 0 17 5 4 31 -12 21 -25 25 -35
9z"/>
<path d="M3040 4175 c-10 -13 -11 -18 -1 -28 10 -9 15 -8 27 7 8 11 14 23 14
28 0 14 -27 9 -40 -7z"/>
<path d="M5620 4176 c0 -18 26 -39 39 -31 7 4 6 12 -2 25 -14 23 -37 27 -37 6z"/>
<path d="M2970 4071 c-7 -14 -7 -22 0 -26 13 -8 40 13 40 31 0 21 -28 17 -40
-5z"/>
<path d="M5687 4084 c-9 -9 16 -44 30 -44 14 0 16 10 7 34 -6 16 -25 21 -37
10z"/>
<path d="M2915 3969 c-10 -30 10 -47 25 -20 11 21 6 41 -10 41 -5 0 -12 -9
-15 -21z"/>
<path d="M5750 3971 c0 -23 25 -46 35 -32 7 13 -12 51 -25 51 -6 0 -10 -8 -10
-19z"/>
<path d="M2864 3865 c-4 -8 -3 -23 1 -32 6 -17 7 -17 21 1 8 11 14 26 14 33 0
18 -29 16 -36 -2z"/>
<path d="M5800 3863 c0 -10 5 -25 10 -33 13 -21 31 0 24 28 -7 26 -34 30 -34
5z"/>
<path d="M2824 3756 c-8 -21 4 -52 15 -40 15 15 17 47 4 51 -7 3 -16 -2 -19
-11z"/>
<path d="M5845 3760 c-3 -5 -1 -19 5 -31 15 -27 35 -10 25 20 -7 22 -20 27
-30 11z"/>
<path d="M2788 3636 c-6 -15 -8 -29 -5 -32 12 -12 37 5 37 25 0 31 -19 35 -32
7z"/>
<path d="M5880 3625 c0 -16 6 -25 15 -25 9 0 15 9 15 25 0 16 -6 25 -15 25 -9
0 -15 -9 -15 -25z"/>
<path d="M2766 3533 c-12 -12 -6 -53 8 -53 18 0 27 47 10 54 -6 2 -15 2 -18
-1z"/>
<path d="M5904 3515 c3 -9 6 -21 6 -26 0 -5 7 -9 16 -9 23 0 14 44 -10 48 -14
3 -17 0 -12 -13z"/>
<path d="M2746 3404 c-10 -26 -7 -44 8 -44 14 0 29 37 20 52 -8 13 -21 9 -28
-8z"/>
<path d="M5920 3385 c0 -16 6 -25 15 -25 9 0 15 9 15 25 0 16 -6 25 -15 25 -9
0 -15 -9 -15 -25z"/>
<path d="M2740 3271 c0 -21 5 -31 16 -31 11 0 14 8 12 27 -4 39 -28 42 -28 4z"/>
<path d="M5930 3259 c0 -38 24 -35 28 4 2 19 -1 27 -12 27 -11 0 -16 -10 -16
-31z"/>
<path d="M2740 3151 c0 -21 5 -31 16 -31 11 0 14 8 12 27 -4 39 -28 42 -28 4z"/>
<path d="M5930 3161 c0 -5 -3 -16 -6 -25 -4 -12 0 -16 15 -16 16 0 21 6 21 25
0 16 -6 25 -15 25 -8 0 -15 -4 -15 -9z"/>
<path d="M2756 3053 c-12 -13 -6 -53 9 -53 9 0 15 9 15 24 0 26 -12 40 -24 29z"/>
<path d="M5914 3036 c-3 -9 -3 -24 1 -33 6 -17 7 -17 21 2 8 10 13 24 11 29
-6 17 -27 18 -33 2z"/>
<path d="M2774 2927 c-8 -23 3 -50 19 -44 13 4 11 36 -4 51 -5 6 -11 3 -15 -7z"/>
<path d="M5897 2923 c-13 -12 -7 -43 8 -43 8 0 15 4 15 9 0 5 3 16 6 25 6 16
-16 23 -29 9z"/>
<path d="M2800 2806 c0 -24 12 -46 21 -40 15 9 10 54 -6 54 -8 0 -15 -6 -15
-14z"/>
<path d="M5864 2795 c-3 -14 -3 -29 1 -33 8 -8 37 28 32 42 -7 21 -27 16 -33
-9z"/>
<path d="M2835 2700 c-7 -11 12 -50 24 -50 16 0 19 13 9 36 -12 25 -23 30 -33
14z"/>
<path d="M5826 2684 c-9 -24 -7 -34 8 -34 13 0 26 20 26 41 0 15 -27 10 -34
-7z"/>
<path d="M2886 2591 c-10 -16 3 -51 20 -51 18 0 18 21 1 45 -10 12 -16 15 -21
6z"/>
<path d="M5780 2571 c-13 -26 -13 -31 5 -31 16 0 38 34 28 44 -11 11 -22 6
-33 -13z"/>
<path d="M2936 2482 c-3 -5 2 -19 11 -31 20 -29 40 -13 24 18 -12 22 -26 27
-35 13z"/>
<path d="M5723 2460 c-8 -13 -9 -21 -2 -25 13 -8 39 13 39 31 0 21 -23 17 -37
-6z"/>
<path d="M3006 2381 c-10 -16 3 -51 20 -51 18 0 18 21 1 45 -10 12 -16 15 -21
6z"/>
<path d="M3074 2276 c-4 -11 0 -24 9 -34 15 -14 17 -14 23 2 4 11 0 24 -9 34
-15 14 -17 14 -23 -2z"/>
<path d="M3146 2181 c-3 -4 3 -16 13 -25 22 -20 40 -4 21 19 -14 17 -26 19
-34 6z"/>
<path d="M5510 2175 c-22 -26 4 -43 30 -20 20 18 18 35 -4 35 -8 0 -19 -7 -26
-15z"/>
<path d="M3234 2095 c-7 -17 10 -35 34 -35 18 0 15 14 -8 35 -18 17 -20 17
-26 0z"/>
<path d="M5431 2091 c-8 -5 -11 -16 -7 -26 6 -17 8 -17 26 0 11 10 20 22 20
27 0 11 -21 10 -39 -1z"/>
<path d="M3324 2019 c-8 -14 21 -43 35 -35 16 10 14 20 -9 33 -13 9 -21 9 -26
2z"/>
<path d="M5330 2005 c-10 -12 -9 -16 4 -21 16 -6 46 11 46 27 0 15 -37 10 -50
-6z"/>
<path d="M3417 1943 c-11 -10 13 -33 34 -33 25 0 24 16 0 30 -23 12 -26 12
-34 3z"/>
<path d="M5240 1935 c-6 -8 -9 -19 -5 -25 9 -14 45 6 45 25 0 19 -24 19 -40 0z"/>
<path d="M3515 1879 c-6 -9 21 -38 37 -39 17 0 18 23 2 35 -23 17 -31 18 -39
4z"/>
<path d="M5148 1879 c-18 -10 -25 -39 -10 -39 5 0 17 6 28 14 24 18 8 40 -18
25z"/>
<path d="M3624 1819 c-7 -12 12 -29 34 -29 18 0 15 27 -4 34 -21 8 -22 8 -30
-5z"/>
<path d="M5038 1819 c-18 -10 -25 -39 -10 -39 5 0 17 6 28 14 24 18 8 40 -18
25z"/>
<path d="M3730 1766 c0 -13 20 -26 41 -26 15 0 10 27 -7 34 -24 9 -34 7 -34
-8z"/>
<path d="M4928 1773 c-18 -5 -25 -33 -9 -33 21 0 41 13 41 26 0 14 -3 15 -32
7z"/>
<path d="M3844 1729 c-8 -13 13 -29 39 -29 23 0 22 17 -2 30 -25 13 -28 13
-37 -1z"/>
<path d="M4806 1727 c-13 -10 -16 -16 -7 -21 15 -10 53 3 48 17 -5 17 -21 18
-41 4z"/>
<path d="M3964 1699 c-8 -14 5 -29 27 -29 10 0 19 6 19 14 0 16 -37 28 -46 15z"/>
<path d="M4680 1684 c0 -10 7 -14 22 -12 32 5 35 28 4 28 -17 0 -26 -5 -26
-16z"/>
<path d="M4080 1665 c0 -9 9 -15 25 -15 16 0 25 6 25 15 0 9 -9 15 -25 15 -16
0 -25 -6 -25 -15z"/>
<path d="M4560 1665 c0 -9 9 -15 25 -15 16 0 25 6 25 15 0 9 -9 15 -25 15 -16
0 -25 -6 -25 -15z"/>
<path d="M4202 1653 c4 -22 48 -31 48 -10 0 14 -20 27 -42 27 -5 0 -8 -8 -6
-17z"/>
<path d="M4445 1660 c-11 -18 13 -36 31 -25 9 6 16 15 17 20 3 14 -40 18 -48
5z"/>
<path d="M4320 1645 c0 -9 9 -15 25 -15 16 0 25 6 25 15 0 9 -9 15 -25 15 -16
0 -25 -6 -25 -15z"/>
<path d="M6180 4813 c0 -157 3 -161 115 -194 49 -14 88 -33 102 -47 29 -32 43
-20 43 36 0 43 -6 56 -71 142 -72 96 -149 185 -149 173 0 -4 -5 -2 -12 5 -7 7
-16 12 -20 12 -4 0 -8 -57 -8 -127z"/>
<path d="M2990 4726 c0 -2 8 -10 18 -17 15 -13 16 -12 3 4 -13 16 -21 21 -21
13z"/>
<path d="M6280 4562 c0 -16 28 -34 34 -23 4 6 -3 15 -14 21 -11 6 -20 7 -20 2z"/>
<path d="M6386 4385 c4 -8 10 -12 15 -9 14 8 10 24 -6 24 -9 0 -12 -6 -9 -15z"/>
<path d="M2161 4118 c-15 -23 -14 -28 4 -28 8 0 15 -6 16 -12 1 -17 17 22 18
43 1 21 -24 20 -38 -3z"/>
<path d="M1980 4005 c-28 -29 -38 -53 -66 -167 -40 -157 -40 -171 -13 -232 19
-45 39 -54 39 -18 0 10 32 41 70 71 61 46 71 58 76 92 4 22 11 42 15 45 11 6
12 44 2 44 -11 0 -33 51 -27 61 3 5 1 9 -3 9 -16 0 -35 68 -25 87 5 10 7 24 5
31 -8 22 -38 13 -73 -23z"/>
<path d="M2103 3952 c-15 -10 -5 -52 12 -52 14 0 27 38 19 52 -6 10 -15 10
-31 0z"/>
<path d="M2040 3600 c0 -5 5 -10 10 -10 6 0 10 5 10 10 0 6 -4 10 -10 10 -5 0
-10 -4 -10 -10z"/>
<path d="M6660 3588 c0 -18 18 -34 28 -24 3 4 -2 14 -11 23 -16 16 -17 16 -17
1z"/>
<path d="M1876 3453 c-30 -37 -30 -37 -34 -200 -4 -161 -4 -164 19 -186 13
-13 29 -32 35 -42 13 -23 34 -12 34 19 0 12 23 50 50 84 70 87 70 120 -5 232
-32 47 -55 91 -53 103 5 33 -15 29 -46 -10z"/>
<path d="M6797 3453 c-4 -3 -7 -16 -7 -28 0 -11 -22 -49 -50 -83 -44 -55 -50
-68 -50 -110 0 -40 8 -58 50 -122 30 -44 50 -86 50 -102 0 -38 19 -35 54 8
l29 37 2 166 c2 154 1 167 -17 179 -11 8 -23 25 -28 38 -9 24 -21 30 -33 17z"/>
<path d="M2016 3422 c-3 -6 -1 -14 5 -17 15 -10 25 3 12 16 -7 7 -13 7 -17 1z"/>
<path d="M6680 3384 c0 -17 22 -14 28 4 2 7 -3 12 -12 12 -9 0 -16 -7 -16 -16z"/>
<path d="M2014 3086 c-8 -22 -2 -27 16 -16 12 7 12 12 3 21 -10 10 -14 9 -19
-5z"/>
<path d="M6680 3055 c0 -8 5 -15 10 -15 6 0 10 7 10 15 0 8 -4 15 -10 15 -5 0
-10 -7 -10 -15z"/>
<path d="M2026 2901 c-7 -10 22 -37 30 -28 9 8 -3 37 -15 37 -5 0 -12 -4 -15
-9z"/>
<path d="M6776 2878 c-3 -13 -35 -45 -71 -73 -57 -44 -67 -56 -80 -103 -16
-54 -13 -71 26 -145 6 -10 12 -44 14 -74 2 -31 7 -58 9 -61 3 -3 23 7 45 21
34 23 43 36 61 94 11 38 30 115 41 172 20 97 21 106 5 131 -9 16 -16 35 -16
44 0 24 -27 19 -34 -6z"/>
<path d="M6667 2873 c-4 -3 -7 -11 -7 -17 0 -6 5 -5 12 2 6 6 9 14 7 17 -3 3
-9 2 -12 -2z"/>
<path d="M6586 2558 c-10 -38 -7 -48 14 -48 20 0 26 22 14 54 -9 23 -21 20
-28 -6z"/>
<path d="M6516 2366 c-11 -41 -8 -47 19 -34 30 13 33 44 6 51 -14 3 -21 -2
-25 -17z"/>
<path d="M2310 2086 c0 -14 5 -26 10 -26 6 0 10 9 10 19 0 11 -4 23 -10 26 -6
4 -10 -5 -10 -19z"/>
<path d="M2405 1929 c-4 -6 -1 -15 6 -20 21 -13 31 -11 27 8 -4 20 -24 28 -33
12z"/>
<path d="M2280 1862 c0 -39 6 -58 31 -92 75 -103 184 -230 198 -230 4 0 11 17
15 38 8 48 8 206 0 226 -3 9 -37 25 -78 36 -99 29 -124 40 -130 56 -3 8 -12
14 -21 14 -11 0 -15 -12 -15 -48z"/>
<path d="M2601 1804 c0 -11 3 -14 6 -6 3 7 2 16 -1 19 -3 4 -6 -2 -5 -13z"/>
<path d="M6065 1389 c-4 -6 -5 -12 -2 -15 2 -3 7 2 10 11 7 17 1 20 -8 4z"/>
<path d="M5766 1359 c-8 -19 -21 -59 -30 -90 -9 -31 -26 -65 -36 -74 -34 -31
-25 -44 29 -41 51 3 95 28 184 104 24 20 65 54 91 76 26 21 45 40 43 42 -2 2
-63 7 -135 10 l-132 7 -14 -34z"/>
<path d="M5664 1305 c-8 -21 6 -41 17 -24 12 19 11 39 -1 39 -6 0 -13 -7 -16
-15z"/>
<path d="M5492 1198 c7 -19 38 -22 38 -4 0 10 -9 16 -21 16 -12 0 -19 -5 -17
-12z"/>
<path d="M3454 1059 c18 -42 29 -46 49 -15 15 23 15 24 -7 30 -13 3 -31 9 -40
12 -14 5 -14 3 -2 -27z"/>
<path d="M3636 1003 c-4 -10 1 -24 15 -37 12 -12 19 -16 15 -10 -3 7 4 14 19
18 34 9 31 22 -6 35 -39 14 -36 14 -43 -6z"/>
<path d="M3747 969 c-10 -6 -28 -9 -38 -6 -12 3 -22 0 -25 -8 -8 -20 -61 -38
-94 -32 -23 5 -30 2 -36 -15 -5 -16 1 -27 27 -47 18 -14 49 -32 69 -39 58 -22
300 -70 306 -61 3 5 19 12 36 17 36 9 50 32 20 32 -13 0 -41 26 -79 74 -69 88
-132 116 -186 85z"/>
<path d="M3972 928 c6 -18 28 -21 28 -4 0 9 -7 16 -16 16 -9 0 -14 -5 -12 -12z"/>
<path d="M4693 925 c-3 -9 -3 -19 1 -22 7 -7 36 16 36 28 0 15 -30 10 -37 -6z"/>
<path d="M4166 904 c-4 -11 -1 -14 11 -12 9 2 18 9 21 16 6 18 -25 15 -32 -4z"/>
<path d="M4243 855 c-55 -36 -93 -55 -113 -55 -40 0 -38 -12 8 -46 37 -29 38
-29 200 -33 151 -3 165 -2 185 16 12 11 30 23 40 26 27 10 21 37 -9 37 -16 0
-48 19 -90 55 -53 45 -72 55 -102 55 -28 0 -57 -13 -119 -55z"/>
<path d="M4500 895 c7 -8 16 -15 21 -15 5 0 9 7 9 15 0 9 -9 15 -21 15 -18 0
-19 -2 -9 -15z"/>
<path d="M3033 5837 c-29 -12 -53 -26 -53 -30 0 -5 4 -5 10 -2 5 3 8 0 5 -7
-3 -7 -1 -19 3 -26 7 -10 20 -9 63 8 30 12 55 23 57 25 7 7 -11 55 -22 54 -6
0 -35 -10 -63 -22z"/>
<path d="M5376 5835 c-11 -8 -15 -15 -9 -15 6 0 16 7 23 15 16 19 11 19 -14 0z"/>
<path d="M2497 5815 c-32 -22 -37 -31 -37 -63 0 -29 3 -34 11 -22 8 12 9 9 5
-12 -4 -15 -3 -47 0 -70 6 -34 9 -39 16 -23 5 13 6 3 2 -25 -4 -32 -2 -41 5
-30 7 11 10 6 9 -18 -1 -31 -2 -31 -19 -16 -10 9 -16 21 -13 25 3 5 -4 9 -15
9 -11 0 -54 23 -95 51 -77 52 -100 56 -133 23 -11 -10 -4 -25 38 -81 28 -37
55 -69 60 -71 5 -2 9 -8 9 -13 0 -6 -4 -7 -10 -4 -5 3 -10 1 -10 -4 0 -6 6
-11 14 -11 7 0 21 -11 30 -25 9 -14 21 -23 25 -20 5 2 8 -3 7 -13 0 -9 4 -16
10 -15 7 1 11 -5 10 -15 0 -9 5 -16 12 -14 15 3 16 -24 0 -34 -7 -5 -8 -2 -3
7 6 11 5 12 -6 2 -8 -9 -10 -16 -3 -23 6 -6 23 -1 47 16 38 26 45 52 12 46 -9
-2 -23 5 -30 15 -103 144 -115 164 -93 152 13 -7 27 -12 32 -11 5 2 6 -4 3
-13 -4 -9 -1 -15 9 -15 9 0 48 -23 87 -50 40 -28 73 -46 75 -40 3 9 -17 118
-44 240 l-6 25 24 -25 c20 -20 22 -27 11 -36 -11 -9 -10 -12 5 -16 11 -3 34
-31 51 -62 18 -31 37 -56 42 -56 6 0 7 -5 4 -10 -4 -6 -10 -8 -15 -5 -5 3 -11
1 -14 -4 -15 -24 19 -19 70 9 54 31 66 55 29 55 -23 0 -87 102 -81 128 2 9 -2
17 -9 17 -7 0 -32 32 -55 71 -33 56 -39 73 -30 85 19 22 -1 17 -43 -11z m-10
-147 c-3 -8 -6 -5 -6 6 -1 11 2 17 5 13 3 -3 4 -12 1 -19z"/>
<path d="M3389 5823 c-13 -16 -12 -17 4 -4 9 7 17 15 17 17 0 8 -8 3 -21 -13z"/>
<path d="M6299 5766 c9 -11 3 -27 -29 -77 -22 -35 -40 -70 -40 -76 0 -7 -5
-13 -11 -13 -5 0 -7 5 -4 10 3 6 0 10 -8 10 -10 0 -13 -7 -10 -20 3 -11 -7
-40 -26 -70 -17 -27 -30 -55 -28 -61 1 -6 -5 -14 -13 -16 -13 -4 -13 -3 0 6
12 9 10 11 -12 11 -16 0 -28 -4 -28 -9 0 -5 39 -34 86 -65 106 -68 145 -73
193 -25 33 32 40 73 21 110 -9 17 -7 19 18 19 53 0 102 69 88 124 -8 32 -65
86 -98 93 -15 3 -29 11 -32 19 -3 8 -12 11 -23 7 -10 -3 -15 -3 -11 2 10 11
-10 35 -29 35 -12 0 -13 -3 -4 -14z m109 -82 c26 -18 28 -53 7 -94 -9 -17 -12
-30 -8 -30 16 -1 -40 -40 -56 -40 -9 1 -1 7 17 15 39 17 43 27 4 13 -23 -9
-33 -8 -55 6 l-26 18 42 64 c23 35 44 64 47 64 3 0 16 -7 28 -16z m-93 -169
c29 -28 30 -36 10 -75 -9 -17 -12 -30 -9 -30 4 0 -1 -9 -11 -20 -20 -22 -67
-28 -62 -7 1 6 -6 11 -15 11 -10 -1 -15 2 -12 7 3 5 0 9 -5 9 -6 0 -11 5 -11
10 0 15 71 120 82 120 5 0 20 -11 33 -25z"/>
<path d="M6286 5395 c-11 -8 -15 -15 -9 -15 6 0 16 7 23 15 16 19 11 19 -14 0z"/>
<path d="M6655 5520 c11 -18 -5 -49 -38 -71 l-32 -21 30 27 c17 15 23 23 15
18 -29 -16 -100 -66 -100 -70 0 -2 5 -1 12 3 7 4 8 3 4 -4 -4 -7 -14 -12 -22
-12 -8 0 -12 5 -9 10 3 6 -1 10 -10 10 -9 0 -14 -4 -10 -9 3 -5 -16 -26 -42
-47 -56 -45 -73 -60 -55 -50 6 4 12 5 12 2 0 -3 -10 -10 -21 -17 -12 -6 -19
-7 -15 -1 7 11 -18 24 -28 15 -11 -12 -6 -21 29 -47 35 -27 67 -28 46 -2 -11
14 10 38 60 70 25 16 26 15 37 -9 6 -14 15 -25 19 -25 5 0 14 -4 21 -9 11 -7
10 -16 -7 -50 -12 -23 -19 -46 -16 -51 9 -14 -9 -12 -23 2 -8 8 -15 9 -23 1
-7 -7 5 -23 40 -52 51 -43 73 -47 64 -12 -7 26 53 141 73 141 13 0 14 3 5 14
-15 18 49 172 72 170 10 -1 13 4 10 13 -3 8 -12 12 -19 9 -9 -3 -14 2 -14 14
0 11 -6 20 -14 20 -7 0 -19 7 -26 15 -14 17 -35 21 -25 5z m-40 -136 c-8 -20
-12 -41 -8 -47 4 -7 0 -8 -12 -4 -14 6 -17 3 -13 -18 6 -29 1 -31 -24 -8 -29
26 -22 57 20 86 50 35 55 33 37 -9z m-165 -48 c0 -2 -8 -10 -17 -17 -16 -13
-17 -12 -4 4 13 16 21 21 21 13z"/>
<path d="M2025 5490 c-3 -5 -4 -14 -1 -19 4 -5 -4 -7 -16 -3 -18 4 -20 2 -14
-14 4 -10 4 -15 0 -12 -9 9 -44 -9 -44 -23 0 -6 5 -7 11 -3 7 4 38 -22 75 -62
63 -68 74 -81 54 -69 -5 3 -10 1 -10 -4 0 -6 6 -11 13 -11 6 0 34 -23 60 -52
27 -29 45 -47 41 -39 -5 9 -3 12 4 7 17 -10 15 -27 -5 -41 -10 -7 -12 -14 -6
-18 6 -4 42 19 80 51 38 32 80 66 93 75 l23 16 -27 46 c-17 29 -25 53 -21 65
4 13 2 20 -7 20 -10 0 -13 -20 -13 -81 0 -44 -4 -83 -9 -86 -5 -4 -6 0 -1 8 5
8 -3 4 -17 -9 l-25 -23 -47 54 c-25 30 -46 62 -46 71 0 9 -6 16 -13 16 -18 0
-113 119 -109 136 3 16 -14 19 -23 4z m302 -212 c-3 -8 -6 -5 -6 6 -1 11 2 17
5 13 3 -3 4 -12 1 -19z"/>
<path d="M6876 5329 c3 -6 -16 -34 -44 -62 -27 -29 -54 -61 -60 -72 -6 -11
-12 -14 -12 -7 0 19 -20 14 -20 -6 0 -10 -20 -38 -45 -62 -24 -24 -42 -47 -39
-52 3 -4 -2 -8 -11 -8 -9 0 -13 5 -10 10 3 6 -1 10 -9 10 -9 0 -16 -3 -16 -8
0 -4 37 -45 83 -90 l83 -82 42 31 c23 17 49 28 57 25 19 -7 31 14 14 25 -19
12 -42 11 -34 -1 4 -6 -7 -8 -27 -4 -25 4 -29 3 -18 -5 11 -8 3 -11 -35 -10
-27 0 -44 3 -37 6 8 3 4 11 -14 25 l-26 21 54 54 c29 29 58 51 65 48 7 -2 13
3 13 13 0 23 109 132 126 125 10 -4 12 0 8 11 -4 10 -13 15 -21 12 -8 -3 -11
-2 -8 4 3 5 -7 20 -22 34 -28 26 -50 35 -37 15z"/>
<path d="M1817 5304 c-3 -3 -3 -12 -1 -19 4 -10 -1 -12 -17 -8 -18 5 -21 3
-16 -10 4 -11 1 -17 -7 -17 -7 0 -19 -7 -26 -15 -10 -13 -9 -15 11 -16 13 -1
27 -1 31 0 4 0 4 -7 1 -16 -5 -12 -3 -14 7 -8 8 5 11 4 6 -3 -6 -11 38 -112
49 -112 3 0 -1 14 -10 30 -9 17 -13 30 -11 30 7 0 36 -56 36 -70 0 -5 -5 -9
-11 -7 -6 1 -13 -3 -16 -9 -2 -7 6 -10 22 -9 20 3 29 -4 41 -27 9 -17 11 -27
4 -23 -6 4 -2 -12 10 -35 12 -23 19 -48 16 -56 -10 -27 16 -26 45 2 34 33 39
59 9 51 -16 -4 -26 4 -46 39 l-26 44 36 34 36 33 44 -27 c24 -16 47 -26 50
-23 3 4 6 2 6 -4 0 -6 -8 -14 -17 -17 -12 -5 -14 -9 -5 -18 9 -9 23 -2 57 32
47 46 59 76 26 65 -23 -7 -141 61 -141 82 0 10 -6 13 -16 9 -23 -9 -164 73
-157 90 5 14 -8 19 -20 8z m103 -173 c0 -9 8 -12 25 -9 21 4 23 3 14 -13 -9
-17 -55 -37 -63 -28 -2 2 -16 28 -30 57 l-27 53 40 -23 c23 -13 41 -29 41 -37z
m40 -215 c0 -12 -5 -7 -19 24 -11 24 -11 24 3 6 9 -11 16 -24 16 -30z"/>
<path d="M7092 4948 c-1 -68 1 -129 6 -135 6 -10 17 -10 42 -3 47 13 50 13 50
-9 0 -16 10 -19 73 -23 55 -4 75 -2 87 10 8 8 9 12 2 8 -19 -11 -44 18 -29 34
7 7 1 6 -13 -2 -16 -10 -39 -14 -62 -11 l-38 5 37 19 c21 10 45 19 54 19 19 0
42 24 32 33 -10 11 -25 8 -18 -3 3 -6 -1 -7 -9 -4 -9 3 -16 11 -16 18 0 6 -7
2 -15 -8 -8 -11 -18 -17 -21 -13 -4 3 -20 -1 -37 -10 l-31 -16 28 34 c16 19
35 38 42 42 8 4 18 16 24 27 8 15 6 18 -8 15 -9 -2 -25 -4 -34 -4 -10 -1 -18
-7 -19 -13 0 -7 -16 -26 -36 -43 l-36 -29 17 32 c20 39 31 121 14 104 -9 -9
-15 -9 -25 0 -11 9 -12 6 -4 -15 8 -19 6 -28 -5 -37 -18 -16 -20 -105 -2 -94
7 5 3 -5 -10 -20 -12 -16 -19 -33 -15 -39 3 -6 1 -7 -6 -3 -11 7 -9 116 4 197
2 15 -2 34 -8 44 -11 14 -13 -6 -15 -107z"/>
<path d="M1880 5031 c0 -6 4 -13 10 -16 6 -3 7 1 4 9 -7 18 -14 21 -14 7z"/>
<path d="M7003 4987 c4 -35 15 -73 29 -95 l23 -37 3 43 c2 27 -3 53 -12 67 -9
14 -16 31 -16 38 0 8 -7 21 -16 28 -15 12 -16 8 -11 -44z"/>
<path d="M1636 4944 c-3 -9 -5 -57 -5 -107 1 -75 3 -85 9 -52 8 39 12 175 5
175 -1 0 -6 -7 -9 -16z"/>
<path d="M1552 4888 c2 -29 13 -66 24 -83 l19 -29 3 38 c2 22 -3 47 -12 61 -9
14 -16 33 -16 45 0 11 -5 20 -11 20 -8 0 -10 -18 -7 -52z"/>
<path d="M1686 4912 c3 -13 -1 -28 -10 -38 -19 -18 -23 -99 -5 -88 7 4 1 -7
-12 -25 -13 -17 -29 -29 -36 -27 -6 3 -10 -1 -7 -7 2 -7 -10 -24 -28 -37 -19
-14 -27 -17 -19 -7 8 10 12 20 9 22 -7 7 -106 -24 -113 -35 -3 -6 -17 -10 -30
-10 -12 0 -25 -7 -29 -15 -3 -8 -2 -14 2 -14 25 4 42 -3 37 -13 -4 -7 -1 -6 7
3 7 9 25 19 40 22 25 7 26 6 15 -18 -7 -13 -20 -26 -29 -29 -18 -4 -35 -33
-25 -42 3 -3 14 -1 25 5 15 8 22 8 25 -2 3 -7 6 -4 6 6 1 26 43 59 54 44 6 -8
7 -7 4 3 -6 21 51 102 66 93 8 -5 8 -8 -1 -11 -15 -5 -17 -192 -2 -192 6 0 10
5 10 11 0 5 6 7 13 3 9 -6 9 -5 0 7 -13 16 -7 85 7 94 10 6 -4 71 -20 90 -9
11 -4 16 27 24 51 14 53 14 53 -9 0 -18 7 -19 78 -19 75 1 77 1 55 18 -17 15
-19 21 -10 32 7 7 3 6 -8 -3 -15 -12 -30 -14 -60 -9 -39 7 -39 7 -12 14 15 4
27 12 27 17 0 6 11 10 24 10 13 0 30 8 37 18 7 9 10 14 5 10 -4 -4 -19 -3 -32
2 -15 6 -24 6 -24 0 0 -6 -8 -10 -17 -10 -10 0 -31 -7 -46 -15 l-29 -15 29 34
c15 19 38 39 51 45 12 6 22 17 22 26 0 17 -9 19 -30 5 -9 -6 -17 -5 -22 3 -5
8 -8 5 -8 -8 0 -12 -11 -25 -26 -32 -21 -10 -25 -10 -20 2 2 7 8 31 12 52 6
34 5 37 -8 25 -13 -10 -17 -10 -22 0 -3 7 -3 3 0 -10z"/>
<path d="M6860 4890 c21 -17 23 -21 10 -31 -13 -9 -12 -10 3 -5 10 3 23 6 29
6 5 0 8 10 6 23 -2 17 -10 23 -38 25 l-35 3 25 -21z"/>
<path d="M1425 4820 c-4 -6 -1 -17 5 -25 10 -12 10 -15 0 -15 -8 0 -11 -2 -8
-5 9 -9 38 6 38 20 0 19 -27 38 -35 25z"/>
<path d="M7067 4783 c-4 -3 -29 -7 -55 -8 -27 -1 -62 -9 -78 -18 -16 -9 -41
-18 -55 -21 -33 -7 -45 -31 -16 -33 11 -1 23 -7 27 -13 5 -8 9 -7 13 4 4 9 13
16 22 16 9 0 30 7 48 15 l32 16 -27 -21 c-16 -12 -28 -27 -28 -34 0 -7 -11
-18 -24 -24 -13 -5 -26 -20 -29 -31 -6 -24 -3 -25 25 -10 16 9 23 8 29 -2 6
-10 9 -6 9 14 0 17 5 27 14 27 16 0 60 49 89 99 17 29 19 39 4 24z"/>
<path d="M7086 4768 c-10 -39 -7 -218 4 -218 6 0 10 7 10 16 0 8 5 12 10 9 6
-3 10 -2 10 4 0 5 -3 12 -8 15 -4 2 -5 26 -3 53 3 36 6 43 12 28 6 -15 8 -11
8 18 1 32 -21 97 -33 97 -2 0 -6 -10 -10 -22z"/>
<path d="M7280 4716 c0 -28 22 -40 40 -23 10 9 11 9 6 0 -4 -7 -2 -13 3 -13
18 0 12 19 -9 30 -11 6 -18 15 -15 21 4 5 -1 9 -9 9 -10 0 -16 -9 -16 -24z"/>
<path d="M1813 4663 c-17 -6 -16 -28 1 -42 19 -16 32 4 16 23 -8 11 -8 15 2
19 7 3 9 5 3 5 -5 0 -16 -2 -22 -5z"/>
<path d="M7010 4663 c-1 -7 -3 -17 -4 -22 0 -6 -7 -16 -13 -22 -16 -16 -17
-59 -1 -59 6 0 8 3 5 7 -4 3 0 11 9 17 11 8 14 23 11 51 -2 22 -5 34 -7 28z"/>
<path d="M7171 4644 c0 -11 3 -14 6 -6 3 7 2 16 -1 19 -3 4 -6 -2 -5 -13z"/>
<path d="M7263 4615 c0 -8 4 -12 9 -9 5 3 6 10 3 15 -9 13 -12 11 -12 -6z"/>
<path d="M7170 4586 c0 -41 15 -56 18 -18 1 14 7 29 13 33 7 4 5 9 -6 13 -25
9 -25 9 -25 -28z"/>
<path d="M1540 4558 c-19 -44 -22 -68 -8 -68 6 0 8 3 5 7 -4 3 2 12 13 20 12
9 20 26 20 44 0 38 -12 37 -30 -3z"/>
<path d="M1701 4548 c0 -26 4 -50 9 -53 6 -4 10 -3 9 2 -4 25 2 44 14 38 6 -4
5 0 -4 7 -9 7 -19 22 -22 33 -2 11 -5 -1 -6 -27z"/>
<path d="M1785 4550 c3 -5 8 -10 11 -10 2 0 4 5 4 10 0 6 -5 10 -11 10 -5 0
-7 -4 -4 -10z"/>
<path d="M7236 4491 c-22 -23 -27 -37 -24 -60 3 -23 0 -32 -13 -36 -9 -3 -27
-30 -39 -59 -20 -50 -20 -56 -6 -90 8 -20 20 -36 27 -36 8 0 8 4 1 13 -12 14
2 47 14 35 4 -4 18 7 33 26 14 18 32 31 39 28 17 -5 15 1 -8 28 -11 13 -20 18
-20 12 0 -7 -5 -12 -11 -12 -6 0 -9 8 -7 18 2 11 11 16 26 14 17 -3 22 2 22
18 0 16 -5 20 -22 18 -35 -5 -32 20 6 56 20 18 36 38 36 44 0 21 -25 13 -54
-17z"/>
<path d="M7345 4500 c-4 -6 -14 -10 -24 -10 -21 0 -54 -45 -48 -63 2 -7 9 -2
16 11 6 12 21 22 32 22 24 0 59 17 59 29 0 13 -29 22 -35 11z"/>
<path d="M7162 4475 c-15 -33 -15 -95 -1 -95 7 0 9 10 7 25 -3 14 -2 25 1 25
11 0 41 57 34 64 -13 13 -30 5 -41 -19z"/>
<path d="M7095 4421 c-6 -37 9 -81 27 -81 11 0 10 18 -2 25 -6 4 -6 15 0 31
14 36 12 64 -4 64 -9 0 -17 -15 -21 -39z m12 -33 c-3 -8 -6 -5 -6 6 -1 11 2
17 5 13 3 -3 4 -12 1 -19z"/>
<path d="M7353 4445 c-29 -20 -31 -40 -4 -25 11 5 38 10 61 10 29 0 40 4 38
13 -7 18 -70 20 -95 2z m50 -2 c-7 -2 -19 -2 -25 0 -7 3 -2 5 12 5 14 0 19 -2
13 -5z"/>
<path d="M1394 4397 c-24 -25 -40 -77 -24 -77 5 0 10 8 10 18 0 9 14 25 30 34
17 9 30 24 30 33 0 21 -21 18 -46 -8z"/>
<path d="M1341 4401 c-7 -5 -10 -14 -7 -20 5 -7 2 -10 -6 -9 -9 2 -14 -11 -16
-39 -2 -28 1 -43 9 -43 7 0 9 8 6 21 -4 13 2 29 14 42 10 11 19 29 19 39 0 21
0 21 -19 9z"/>
<path d="M1473 4394 c-18 -8 -37 -22 -43 -33 -15 -29 -12 -36 8 -18 9 8 29 19
45 22 15 4 30 12 33 17 12 19 -11 25 -43 12z"/>
<path d="M7284 4388 c3 -13 5 -25 5 -27 1 -2 8 2 16 9 12 10 13 16 4 26 -17
21 -29 17 -25 -8z"/>
<path d="M7398 4403 c-10 -2 -18 -9 -18 -14 0 -13 24 -11 38 3 8 8 12 8 12 1
0 -14 56 -37 69 -29 13 8 4 32 -12 34 -7 1 -25 4 -42 6 -16 2 -38 2 -47 -1z"/>
<path d="M7047 4394 c-19 -20 28 -115 57 -114 6 1 2 8 -9 18 -14 12 -20 29
-20 56 0 37 -13 55 -28 40z m20 -66 c-3 -8 -6 -5 -6 6 -1 11 2 17 5 13 3 -3 4
-12 1 -19z"/>
<path d="M7357 4370 c3 -11 10 -23 16 -27 6 -4 7 -1 2 8 -6 11 -5 11 5 2 16
-15 4 -34 -18 -27 -12 4 -13 3 -4 -3 7 -5 10 -17 6 -26 -3 -9 -2 -17 4 -17 6
0 12 5 14 10 2 7 11 5 23 -4 11 -8 16 -18 12 -22 -4 -5 -12 -2 -16 5 -7 11
-13 9 -30 -8 -25 -25 -29 -71 -6 -71 22 0 18 -23 -7 -56 l-23 -29 26 20 c14
10 33 29 42 42 22 28 34 123 17 123 -7 0 -9 7 -6 16 7 17 -19 60 -44 74 -15 8
-17 6 -13 -10z"/>
<path d="M1274 4362 c-21 -14 -24 -69 -6 -92 17 -20 17 -19 19 40 1 33 1 60 0
60 -1 0 -7 -4 -13 -8z"/>
<path d="M1539 4362 c-21 -2 -45 -12 -54 -23 -21 -22 -4 -26 19 -4 9 9 17 11
21 5 8 -13 52 -13 61 1 10 17 -7 24 -47 21z"/>
<path d="M7420 4339 c0 -7 11 -9 28 -6 16 3 35 0 46 -9 11 -8 15 -14 9 -14 -7
0 -15 5 -18 10 -3 6 -11 10 -17 10 -6 0 -1 -11 12 -25 25 -27 50 -33 50 -12 0
24 -45 57 -78 57 -18 0 -32 -5 -32 -11z"/>
<path d="M1405 4315 c-5 -2 -22 -6 -36 -9 -37 -8 -73 -91 -59 -133 10 -28 50
-63 50 -44 0 6 -8 15 -17 21 -14 9 -15 12 -5 17 22 9 71 60 65 67 -4 3 -2 6 4
6 6 0 11 18 11 40 0 22 0 40 -1 39 -1 0 -6 -2 -12 -4z m-11 -50 c-4 -8 -10
-13 -15 -10 -4 3 -6 12 -3 20 4 8 10 13 15 10 4 -3 6 -12 3 -20z"/>
<path d="M1433 4298 c2 -12 8 -22 13 -20 14 3 11 35 -4 40 -8 2 -11 -4 -9 -20z"/>
<path d="M1534 4304 c-25 -12 -30 -21 -29 -45 1 -16 4 -32 8 -35 3 -3 -1 -26
-8 -52 -15 -48 -13 -62 10 -62 17 0 10 -25 -14 -54 -15 -18 -15 -18 5 -6 12 7
29 26 39 42 19 33 30 118 15 118 -5 0 -6 -8 -3 -17 5 -13 2 -15 -11 -10 -10 4
-20 7 -22 7 -2 0 -4 5 -4 11 0 5 4 8 9 5 5 -3 14 1 21 10 11 12 10 20 -7 42
l-20 28 23 11 c13 6 24 8 24 4 0 -8 45 -31 60 -31 23 0 7 29 -21 39 -39 14
-38 14 -75 -5z m-9 -54 c3 -5 1 -10 -4 -10 -6 0 -11 5 -11 10 0 6 2 10 4 10 3
0 8 -4 11 -10z"/>
<path d="M7017 4307 c-4 -12 31 -77 41 -77 4 0 18 -3 31 -7 17 -4 22 -3 17 5
-4 7 -19 12 -34 12 -18 0 -23 3 -14 9 10 6 11 13 1 34 -13 29 -36 42 -42 24z"/>
<path d="M1216 4301 c-10 -15 5 -71 17 -64 5 3 7 1 4 -4 -4 -6 2 -18 13 -28
11 -10 20 -13 20 -7 0 6 -4 13 -9 16 -4 3 -11 23 -15 45 -6 40 -20 59 -30 42z"/>
<path d="M7440 4280 c0 -5 7 -10 16 -10 8 0 21 -15 29 -34 8 -19 20 -38 26
-42 20 -12 27 18 10 47 -21 36 -81 66 -81 39z"/>
<path d="M1574 4253 c11 -3 28 -16 39 -29 19 -24 57 -33 57 -13 0 22 -45 48
-80 48 -20 -1 -27 -3 -16 -6z"/>
<path d="M1185 4220 c-8 -13 4 -32 15 -25 5 3 12 0 16 -6 4 -8 3 -9 -4 -5 -7
4 -12 3 -12 -3 0 -12 40 -41 58 -41 22 0 2 20 -21 21 -12 0 -16 3 -10 6 10 3
9 11 -2 34 -16 30 -29 36 -40 19z"/>
<path d="M7010 4220 c0 -6 12 -22 28 -35 28 -25 92 -35 92 -14 0 8 -11 9 -32
5 -17 -3 -28 -3 -25 1 9 9 -32 53 -50 53 -7 0 -13 -5 -13 -10z"/>
<path d="M7440 4220 c0 -6 6 -13 13 -16 7 -2 14 -21 15 -41 3 -40 8 -53 23
-53 5 0 9 17 9 38 0 27 -7 45 -23 60 -25 24 -37 28 -37 12z"/>
<path d="M1580 4200 c0 -5 4 -10 10 -10 5 0 22 -19 36 -41 19 -30 28 -38 34
-29 12 19 -10 59 -41 76 -33 17 -39 17 -39 4z"/>
<path d="M7208 4193 c6 -2 12 -12 12 -21 1 -9 11 -30 24 -45 l23 -28 16 25
c10 14 17 29 17 33 0 14 -57 43 -82 42 -12 0 -17 -3 -10 -6z"/>
<path d="M7423 4106 c-2 -55 0 -64 12 -60 8 4 15 14 15 23 0 9 3 25 6 37 3 12
-2 29 -13 43 -18 22 -18 21 -20 -43z"/>
<path d="M1180 4135 c0 -14 12 -19 33 -16 4 0 6 -4 5 -11 -5 -19 50 -35 65
-19 10 11 7 13 -16 9 -15 -3 -25 -3 -22 0 8 8 -36 52 -52 52 -7 0 -13 -7 -13
-15z"/>
<path d="M1580 4139 c0 -6 9 -13 21 -16 14 -4 17 -8 9 -13 -15 -9 1 -68 16
-60 14 8 5 62 -13 82 -18 20 -33 23 -33 7z"/>
<path d="M7045 4140 c-10 -16 3 -28 35 -35 35 -8 90 2 90 16 0 6 -9 8 -19 4
-11 -3 -36 1 -56 10 -44 18 -42 18 -50 5z"/>
<path d="M7380 4109 c0 -15 -9 -38 -20 -52 -11 -14 -20 -32 -20 -41 0 -14 4
-15 21 -6 12 7 18 18 15 26 -3 8 0 13 7 11 16 -3 21 47 8 70 -9 16 -10 15 -11
-8z"/>
<path d="M1370 4103 c1 -10 11 -31 24 -47 l24 -29 17 27 c17 25 17 27 -6 46
-30 24 -59 26 -59 3z"/>
<path d="M1560 4095 c0 -6 8 -21 17 -34 9 -14 12 -21 6 -18 -12 8 -23 -14 -23
-44 0 -19 15 -26 23 -11 17 27 15 69 -3 92 -11 14 -20 20 -20 15z"/>
<path d="M7191 4081 c-12 -12 -29 -21 -38 -20 -16 0 -15 2 2 9 15 7 11 9 -20
7 -52 -3 -52 -21 1 -25 29 -2 48 3 65 17 13 10 21 22 17 26 -3 4 -16 -3 -27
-14z"/>
<path d="M7327 4093 c-4 -3 -7 -14 -7 -23 0 -9 -11 -22 -24 -28 -33 -15 -54
-52 -30 -52 25 0 74 56 74 85 0 26 -2 29 -13 18z"/>
<path d="M7263 4078 c-5 -7 -13 -21 -16 -30 -4 -10 -12 -18 -19 -18 -9 0 -8 3
2 10 12 8 11 10 -6 10 -11 0 -29 -7 -40 -15 -15 -12 -16 -16 -5 -24 21 -14 71
11 88 42 15 30 13 46 -4 25z"/>
<path d="M1210 4054 c0 -12 7 -15 25 -12 13 3 22 1 19 -3 -6 -10 21 -11 53 -3
13 4 20 10 17 15 -3 5 -12 5 -22 0 -12 -6 -24 -5 -37 5 -25 19 -55 18 -55 -2z"/>
<path d="M1524 4020 c2 -17 0 -28 -4 -25 -9 6 -30 -25 -30 -44 0 -6 7 -11 16
-11 11 0 15 6 11 20 -3 11 0 18 7 17 6 -1 12 14 14 36 2 22 -1 37 -8 37 -7 0
-9 -12 -6 -30z"/>
<path d="M1348 4011 c-8 -13 -22 -21 -38 -20 l-25 1 25 8 c22 7 21 8 -13 9
-50 1 -45 -23 4 -27 25 -2 40 3 54 18 10 11 16 23 12 26 -3 3 -12 -3 -19 -15z"/>
<path d="M1470 3998 c0 -21 -3 -28 -9 -20 -6 10 -10 10 -21 -3 -16 -19 -34
-20 -26 0 3 8 9 23 12 33 5 15 4 15 -8 1 -7 -9 -30 -21 -51 -28 -21 -7 -36
-18 -34 -24 5 -13 20 -14 55 -3 16 6 22 3 22 -8 0 -23 23 -20 47 7 26 27 37
63 23 72 -6 4 -10 -7 -10 -27z"/>
<path d="M7366 3831 c-22 -23 -27 -37 -24 -60 3 -23 0 -32 -13 -36 -9 -3 -27
-30 -39 -59 -20 -50 -20 -56 -6 -90 8 -20 20 -36 27 -36 8 0 8 4 1 13 -12 14
2 47 14 35 4 -4 18 7 33 26 14 18 32 31 39 28 17 -5 15 1 -8 28 -11 13 -20 18
-20 12 0 -7 -5 -12 -11 -12 -6 0 -9 8 -7 18 2 11 11 16 26 14 17 -3 22 2 22
18 0 16 -5 20 -22 18 -35 -5 -32 20 6 56 20 18 36 38 36 44 0 21 -25 13 -54
-17z"/>
<path d="M7475 3840 c-4 -6 -14 -10 -24 -10 -21 0 -54 -45 -48 -63 2 -7 9 -2
16 11 6 12 21 22 32 22 24 0 59 17 59 29 0 13 -29 22 -35 11z"/>
<path d="M7292 3815 c-15 -33 -15 -95 -1 -95 7 0 9 10 7 25 -3 14 -2 25 1 25
11 0 41 57 34 64 -13 13 -30 5 -41 -19z"/>
<path d="M7225 3761 c-6 -37 9 -81 27 -81 11 0 10 18 -2 25 -6 4 -6 15 0 31
14 36 12 64 -4 64 -9 0 -17 -15 -21 -39z m12 -33 c-3 -8 -6 -5 -6 6 -1 11 2
17 5 13 3 -3 4 -12 1 -19z"/>
<path d="M7483 3785 c-29 -20 -31 -40 -4 -25 11 5 38 10 61 10 29 0 40 4 38
13 -7 18 -70 20 -95 2z m50 -2 c-7 -2 -19 -2 -25 0 -7 3 -2 5 12 5 14 0 19 -2
13 -5z"/>
<path d="M1326 3741 c-22 -23 -27 -37 -24 -60 3 -23 0 -32 -13 -36 -9 -3 -27
-30 -39 -59 -20 -50 -20 -56 -6 -90 8 -20 20 -36 27 -36 8 0 8 4 1 13 -12 14
2 47 14 35 4 -4 18 7 33 26 14 18 32 31 39 28 17 -5 15 1 -8 28 -11 13 -20 18
-20 12 0 -7 -5 -12 -11 -12 -6 0 -9 8 -7 18 2 11 11 16 26 14 17 -3 22 2 22
18 0 16 -5 20 -22 18 -35 -5 -32 20 6 56 20 18 36 38 36 44 0 21 -25 13 -54
-17z"/>
<path d="M1435 3750 c-4 -6 -14 -10 -24 -10 -21 0 -54 -45 -48 -63 2 -7 9 -2
16 11 6 12 21 22 32 22 24 0 59 17 59 29 0 13 -29 22 -35 11z"/>
<path d="M1252 3725 c-15 -33 -15 -95 -1 -95 7 0 9 10 7 25 -3 14 -2 25 1 25
11 0 41 57 34 64 -13 13 -30 5 -41 -19z"/>
<path d="M7414 3728 c3 -13 5 -25 5 -27 1 -2 8 2 16 9 12 10 13 16 4 26 -17
21 -29 17 -25 -8z"/>
<path d="M7528 3743 c-10 -2 -18 -9 -18 -14 0 -13 24 -11 38 3 8 8 12 8 12 1
0 -14 56 -37 69 -29 13 8 4 32 -12 34 -7 1 -25 4 -42 6 -16 2 -38 2 -47 -1z"/>
<path d="M7177 3734 c-19 -20 28 -115 57 -114 6 1 2 8 -9 18 -14 12 -20 29
-20 56 0 37 -13 55 -28 40z m20 -66 c-3 -8 -6 -5 -6 6 -1 11 2 17 5 13 3 -3 4
-12 1 -19z"/>
<path d="M7487 3710 c3 -11 10 -23 16 -27 6 -4 7 -1 2 8 -6 11 -5 11 5 2 16
-15 4 -34 -18 -27 -12 4 -13 3 -4 -3 7 -5 10 -17 6 -26 -3 -9 -2 -17 4 -17 6
0 12 5 14 10 2 7 11 5 23 -4 11 -8 16 -18 12 -22 -4 -5 -12 -2 -16 5 -7 11
-13 9 -30 -8 -25 -25 -29 -71 -6 -71 22 0 18 -23 -7 -56 l-23 -29 26 20 c14
10 33 29 42 42 22 28 34 123 17 123 -7 0 -9 7 -6 16 7 17 -19 60 -44 74 -15 8
-17 6 -13 -10z"/>
<path d="M1185 3671 c-6 -37 9 -81 27 -81 11 0 10 18 -2 25 -6 4 -6 15 0 31
14 36 12 64 -4 64 -9 0 -17 -15 -21 -39z m12 -33 c-3 -8 -6 -5 -6 6 -1 11 2
17 5 13 3 -3 4 -12 1 -19z"/>
<path d="M1443 3695 c-29 -20 -31 -40 -4 -25 11 5 38 10 61 10 29 0 40 4 38
13 -7 18 -70 20 -95 2z m50 -2 c-7 -2 -19 -2 -25 0 -7 3 -2 5 12 5 14 0 19 -2
13 -5z"/>
<path d="M7550 3679 c0 -7 11 -9 28 -6 16 3 35 0 46 -9 11 -8 15 -14 9 -14 -7
0 -15 5 -18 10 -3 6 -11 10 -17 10 -6 0 -1 -11 12 -25 25 -27 50 -33 50 -12 0
24 -45 57 -78 57 -18 0 -32 -5 -32 -11z"/>
<path d="M1374 3638 c3 -13 5 -25 5 -27 1 -2 8 2 16 9 12 10 13 16 4 26 -17
21 -29 17 -25 -8z"/>
<path d="M1488 3653 c-10 -2 -18 -9 -18 -14 0 -13 24 -11 38 3 8 8 12 8 12 1
0 -14 56 -37 69 -29 13 8 4 32 -12 34 -7 1 -25 4 -42 6 -16 2 -38 2 -47 -1z"/>
<path d="M7147 3647 c-4 -12 31 -77 41 -77 4 0 18 -3 31 -7 17 -4 22 -3 17 5
-4 7 -19 12 -34 12 -18 0 -23 3 -14 9 10 6 11 13 1 34 -13 29 -36 42 -42 24z"/>
<path d="M1137 3644 c-19 -20 28 -115 57 -114 6 1 2 8 -9 18 -14 12 -20 29
-20 56 0 37 -13 55 -28 40z m20 -66 c-3 -8 -6 -5 -6 6 -1 11 2 17 5 13 3 -3 4
-12 1 -19z"/>
<path d="M1447 3620 c3 -11 10 -23 16 -27 6 -4 7 -1 2 8 -6 11 -5 11 5 2 16
-15 4 -34 -18 -27 -12 4 -13 3 -4 -3 7 -5 10 -17 6 -26 -3 -9 -2 -17 4 -17 6
0 12 5 14 10 2 7 11 5 23 -4 11 -8 16 -18 12 -22 -4 -5 -12 -2 -16 5 -7 11
-13 9 -30 -8 -25 -25 -29 -71 -6 -71 22 0 18 -23 -7 -56 l-23 -29 26 20 c14
10 33 29 42 42 22 28 34 123 17 123 -7 0 -9 7 -6 16 7 17 -19 60 -44 74 -15 8
-17 6 -13 -10z"/>
<path d="M7570 3620 c0 -5 7 -10 16 -10 8 0 21 -15 29 -34 8 -19 20 -38 26
-42 20 -12 27 18 10 47 -21 36 -81 66 -81 39z"/>
<path d="M1510 3589 c0 -7 11 -9 28 -6 16 3 35 0 46 -9 11 -8 15 -14 9 -14 -7
0 -15 5 -18 10 -3 6 -11 10 -17 10 -6 0 -1 -11 12 -25 25 -27 50 -33 50 -12 0
24 -45 57 -78 57 -18 0 -32 -5 -32 -11z"/>
<path d="M1107 3557 c-4 -12 31 -77 41 -77 4 0 18 -3 31 -7 17 -4 22 -3 17 5
-4 7 -19 12 -34 12 -18 0 -23 3 -14 9 10 6 11 13 1 34 -13 29 -36 42 -42 24z"/>
<path d="M7140 3560 c0 -6 12 -22 28 -35 28 -25 92 -35 92 -14 0 8 -11 9 -32
5 -17 -3 -28 -3 -25 1 9 9 -32 53 -50 53 -7 0 -13 -5 -13 -10z"/>
<path d="M7570 3560 c0 -6 6 -13 13 -16 7 -2 14 -21 15 -41 3 -40 8 -53 23
-53 5 0 9 17 9 38 0 27 -7 45 -23 60 -25 24 -37 28 -37 12z"/>
<path d="M1530 3530 c0 -5 7 -10 16 -10 8 0 21 -15 29 -34 8 -19 20 -38 26
-42 20 -12 27 18 10 47 -21 36 -81 66 -81 39z"/>
<path d="M7338 3533 c6 -2 12 -12 12 -21 1 -9 11 -30 24 -45 l23 -28 16 25
c10 14 17 29 17 33 0 14 -57 43 -82 42 -12 0 -17 -3 -10 -6z"/>
<path d="M7553 3446 c-2 -55 0 -64 12 -60 8 4 15 14 15 23 0 9 3 25 6 37 3 12
-2 29 -13 43 -18 22 -18 21 -20 -43z"/>
<path d="M7175 3480 c-10 -16 3 -28 35 -35 35 -8 90 2 90 16 0 6 -9 8 -19 4
-11 -3 -36 1 -56 10 -44 18 -42 18 -50 5z"/>
<path d="M1100 3470 c0 -6 12 -22 28 -35 28 -25 92 -35 92 -14 0 8 -11 9 -32
5 -17 -3 -28 -3 -25 1 9 9 -32 53 -50 53 -7 0 -13 -5 -13 -10z"/>
<path d="M1530 3470 c0 -6 6 -13 13 -16 7 -2 14 -21 15 -41 3 -40 8 -53 23
-53 5 0 9 17 9 38 0 27 -7 45 -23 60 -25 24 -37 28 -37 12z"/>
<path d="M7510 3449 c0 -15 -9 -38 -20 -52 -11 -14 -20 -32 -20 -41 0 -14 4
-15 21 -6 12 7 18 18 15 26 -3 8 0 13 7 11 16 -3 21 47 8 70 -9 16 -10 15 -11
-8z"/>
<path d="M1298 3443 c6 -2 12 -12 12 -21 1 -9 11 -30 24 -45 l23 -28 16 25
c10 14 17 29 17 33 0 14 -57 43 -82 42 -12 0 -17 -3 -10 -6z"/>
<path d="M7321 3421 c-12 -12 -29 -21 -38 -20 -16 0 -15 2 2 9 15 7 11 9 -20
7 -52 -3 -52 -21 1 -25 29 -2 48 3 65 17 13 10 21 22 17 26 -3 4 -16 -3 -27
-14z"/>
<path d="M7457 3433 c-4 -3 -7 -14 -7 -23 0 -9 -11 -22 -24 -28 -33 -15 -54
-52 -30 -52 25 0 74 56 74 85 0 26 -2 29 -13 18z"/>
<path d="M7393 3418 c-5 -7 -13 -21 -16 -30 -4 -10 -12 -18 -19 -18 -9 0 -8 3
2 10 12 8 11 10 -6 10 -11 0 -29 -7 -40 -15 -15 -12 -16 -16 -5 -24 21 -14 71
11 88 42 15 30 13 46 -4 25z"/>
<path d="M1513 3356 c-2 -55 0 -64 12 -60 8 4 15 14 15 23 0 9 3 25 6 37 3 12
-2 29 -13 43 -18 22 -18 21 -20 -43z"/>
<path d="M1135 3390 c-10 -16 3 -28 35 -35 35 -8 90 2 90 16 0 6 -9 8 -19 4
-11 -3 -36 1 -56 10 -44 18 -42 18 -50 5z"/>
<path d="M1470 3359 c0 -15 -9 -38 -20 -52 -11 -14 -20 -32 -20 -41 0 -14 4
-15 21 -6 12 7 18 18 15 26 -3 8 0 13 7 11 16 -3 21 47 8 70 -9 16 -10 15 -11
-8z"/>
<path d="M1281 3331 c-12 -12 -29 -21 -38 -20 -16 0 -15 2 2 9 15 7 11 9 -20
7 -52 -3 -52 -21 1 -25 29 -2 48 3 65 17 13 10 21 22 17 26 -3 4 -16 -3 -27
-14z"/>
<path d="M1417 3343 c-4 -3 -7 -14 -7 -23 0 -9 -11 -22 -24 -28 -33 -15 -54
-52 -30 -52 25 0 74 56 74 85 0 26 -2 29 -13 18z"/>
<path d="M1353 3328 c-5 -7 -13 -21 -16 -30 -4 -10 -12 -18 -19 -18 -9 0 -8 3
2 10 12 8 11 10 -6 10 -11 0 -29 -7 -40 -15 -15 -12 -16 -16 -5 -24 21 -14 71
11 88 42 15 30 13 46 -4 25z"/>
<path d="M7366 3201 c-22 -23 -27 -37 -24 -60 3 -23 0 -32 -13 -36 -9 -3 -27
-30 -39 -59 -20 -50 -20 -56 -6 -90 8 -20 20 -36 27 -36 8 0 8 4 1 13 -12 14
2 47 14 35 4 -4 18 7 33 26 14 18 32 31 39 28 17 -5 15 1 -8 28 -11 13 -20 18
-20 12 0 -7 -5 -12 -11 -12 -6 0 -9 8 -7 18 2 11 11 16 26 14 17 -3 22 2 22
18 0 16 -5 20 -22 18 -35 -5 -32 20 6 56 20 18 36 38 36 44 0 21 -25 13 -54
-17z"/>
<path d="M7475 3210 c-4 -6 -14 -10 -24 -10 -21 0 -54 -45 -48 -63 2 -7 9 -2
16 11 6 12 21 22 32 22 24 0 59 17 59 29 0 13 -29 22 -35 11z"/>
<path d="M7292 3185 c-15 -33 -15 -95 -1 -95 7 0 9 10 7 25 -3 14 -2 25 1 25
11 0 41 57 34 64 -13 13 -30 5 -41 -19z"/>
<path d="M7225 3131 c-6 -37 9 -81 27 -81 11 0 10 18 -2 25 -6 4 -6 15 0 31
14 36 12 64 -4 64 -9 0 -17 -15 -21 -39z m12 -33 c-3 -8 -6 -5 -6 6 -1 11 2
17 5 13 3 -3 4 -12 1 -19z"/>
<path d="M7483 3155 c-29 -20 -31 -40 -4 -25 11 5 38 10 61 10 29 0 40 4 38
13 -7 18 -70 20 -95 2z m50 -2 c-7 -2 -19 -2 -25 0 -7 3 -2 5 12 5 14 0 19 -2
13 -5z"/>
<path d="M7414 3098 c3 -13 5 -25 5 -27 1 -2 8 2 16 9 12 10 13 16 4 26 -17
21 -29 17 -25 -8z"/>
<path d="M7528 3113 c-10 -2 -18 -9 -18 -14 0 -13 24 -11 38 3 8 8 12 8 12 1
0 -14 56 -37 69 -29 13 8 4 32 -12 34 -7 1 -25 4 -42 6 -16 2 -38 2 -47 -1z"/>
<path d="M7177 3104 c-19 -20 28 -115 57 -114 6 1 2 8 -9 18 -14 12 -20 29
-20 56 0 37 -13 55 -28 40z m20 -66 c-3 -8 -6 -5 -6 6 -1 11 2 17 5 13 3 -3 4
-12 1 -19z"/>
<path d="M7487 3080 c3 -11 10 -23 16 -27 6 -4 7 -1 2 8 -6 11 -5 11 5 2 16
-15 4 -34 -18 -27 -12 4 -13 3 -4 -3 7 -5 10 -17 6 -26 -3 -9 -2 -17 4 -17 6
0 12 5 14 10 2 7 11 5 23 -4 11 -8 16 -18 12 -22 -4 -5 -12 -2 -16 5 -7 11
-13 9 -30 -8 -25 -25 -29 -71 -6 -71 22 0 18 -23 -7 -56 l-23 -29 26 20 c14
10 33 29 42 42 22 28 34 123 17 123 -7 0 -9 7 -6 16 7 17 -19 60 -44 74 -15 8
-17 6 -13 -10z"/>
<path d="M1326 3031 c-22 -23 -27 -37 -24 -60 3 -23 0 -32 -13 -36 -9 -3 -27
-30 -39 -59 -20 -50 -20 -56 -6 -90 8 -20 20 -36 27 -36 8 0 8 4 1 13 -12 14
2 47 14 35 4 -4 18 7 33 26 14 18 32 31 39 28 17 -5 15 1 -8 28 -11 13 -20 18
-20 12 0 -7 -5 -12 -11 -12 -6 0 -9 8 -7 18 2 11 11 16 26 14 17 -3 22 2 22
18 0 16 -5 20 -22 18 -35 -5 -32 20 6 56 20 18 36 38 36 44 0 21 -25 13 -54
-17z"/>
<path d="M7550 3049 c0 -7 11 -9 28 -6 16 3 35 0 46 -9 11 -8 15 -14 9 -14 -7
0 -15 5 -18 10 -3 6 -11 10 -17 10 -6 0 -1 -11 12 -25 25 -27 50 -33 50 -12 0
24 -45 57 -78 57 -18 0 -32 -5 -32 -11z"/>
<path d="M1435 3040 c-4 -6 -14 -10 -24 -10 -21 0 -54 -45 -48 -63 2 -7 9 -2
16 11 6 12 21 22 32 22 24 0 59 17 59 29 0 13 -29 22 -35 11z"/>
<path d="M1252 3015 c-15 -33 -15 -95 -1 -95 7 0 9 10 7 25 -3 14 -2 25 1 25
11 0 41 57 34 64 -13 13 -30 5 -41 -19z"/>
<path d="M7147 3017 c-4 -12 31 -77 41 -77 4 0 18 -3 31 -7 17 -4 22 -3 17 5
-4 7 -19 12 -34 12 -18 0 -23 3 -14 9 10 6 11 13 1 34 -13 29 -36 42 -42 24z"/>
<path d="M1185 2961 c-6 -37 9 -81 27 -81 11 0 10 18 -2 25 -6 4 -6 15 0 31
14 36 12 64 -4 64 -9 0 -17 -15 -21 -39z m12 -33 c-3 -8 -6 -5 -6 6 -1 11 2
17 5 13 3 -3 4 -12 1 -19z"/>
<path d="M1443 2985 c-29 -20 -31 -40 -4 -25 11 5 38 10 61 10 29 0 40 4 38
13 -7 18 -70 20 -95 2z m50 -2 c-7 -2 -19 -2 -25 0 -7 3 -2 5 12 5 14 0 19 -2
13 -5z"/>
<path d="M7570 2990 c0 -5 7 -10 16 -10 8 0 21 -15 29 -34 8 -19 20 -38 26
-42 20 -12 27 18 10 47 -21 36 -81 66 -81 39z"/>
<path d="M1374 2928 c3 -13 5 -25 5 -27 1 -2 8 2 16 9 12 10 13 16 4 26 -17
21 -29 17 -25 -8z"/>
<path d="M1488 2943 c-10 -2 -18 -9 -18 -14 0 -13 24 -11 38 3 8 8 12 8 12 1
0 -14 56 -37 69 -29 13 8 4 32 -12 34 -7 1 -25 4 -42 6 -16 2 -38 2 -47 -1z"/>
<path d="M1137 2934 c-19 -20 28 -115 57 -114 6 1 2 8 -9 18 -14 12 -20 29
-20 56 0 37 -13 55 -28 40z m20 -66 c-3 -8 -6 -5 -6 6 -1 11 2 17 5 13 3 -3 4
-12 1 -19z"/>
<path d="M7140 2930 c0 -6 12 -22 28 -35 28 -25 92 -35 92 -14 0 8 -11 9 -32
5 -17 -3 -28 -3 -25 1 9 9 -32 53 -50 53 -7 0 -13 -5 -13 -10z"/>
<path d="M7570 2930 c0 -6 6 -13 13 -16 7 -2 14 -21 15 -41 3 -40 8 -53 23
-53 5 0 9 17 9 38 0 27 -7 45 -23 60 -25 24 -37 28 -37 12z"/>
<path d="M1447 2910 c3 -11 10 -23 16 -27 6 -4 7 -1 2 8 -6 11 -5 11 5 2 16
-15 4 -34 -18 -27 -12 4 -13 3 -4 -3 7 -5 10 -17 6 -26 -3 -9 -2 -17 4 -17 6
0 12 5 14 10 2 7 11 5 23 -4 11 -8 16 -18 12 -22 -4 -5 -12 -2 -16 5 -7 11
-13 9 -30 -8 -25 -25 -29 -71 -6 -71 22 0 18 -23 -7 -56 l-23 -29 26 20 c14
10 33 29 42 42 22 28 34 123 17 123 -7 0 -9 7 -6 16 7 17 -19 60 -44 74 -15 8
-17 6 -13 -10z"/>
<path d="M7338 2903 c6 -2 12 -12 12 -21 1 -9 11 -30 24 -45 l23 -28 16 25
c10 14 17 29 17 33 0 14 -57 43 -82 42 -12 0 -17 -3 -10 -6z"/>
<path d="M1510 2879 c0 -7 11 -9 28 -6 16 3 35 0 46 -9 11 -8 15 -14 9 -14 -7
0 -15 5 -18 10 -3 6 -11 10 -17 10 -6 0 -1 -11 12 -25 25 -27 50 -33 50 -12 0
24 -45 57 -78 57 -18 0 -32 -5 -32 -11z"/>
<path d="M7553 2816 c-2 -55 0 -64 12 -60 8 4 15 14 15 23 0 9 3 25 6 37 3 12
-2 29 -13 43 -18 22 -18 21 -20 -43z"/>
<path d="M1107 2847 c-4 -12 31 -77 41 -77 4 0 18 -3 31 -7 17 -4 22 -3 17 5
-4 7 -19 12 -34 12 -18 0 -23 3 -14 9 10 6 11 13 1 34 -13 29 -36 42 -42 24z"/>
<path d="M7175 2850 c-10 -16 3 -28 35 -35 35 -8 90 2 90 16 0 6 -9 8 -19 4
-11 -3 -36 1 -56 10 -44 18 -42 18 -50 5z"/>
<path d="M7510 2819 c0 -15 -9 -38 -20 -52 -11 -14 -20 -32 -20 -41 0 -14 4
-15 21 -6 12 7 18 18 15 26 -3 8 0 13 7 11 16 -3 21 47 8 70 -9 16 -10 15 -11
-8z"/>
<path d="M1530 2820 c0 -5 7 -10 16 -10 8 0 21 -15 29 -34 8 -19 20 -38 26
-42 20 -12 27 18 10 47 -21 36 -81 66 -81 39z"/>
<path d="M7321 2791 c-12 -12 -29 -21 -38 -20 -16 0 -15 2 2 9 15 7 11 9 -20
7 -52 -3 -52 -21 1 -25 29 -2 48 3 65 17 13 10 21 22 17 26 -3 4 -16 -3 -27
-14z"/>
<path d="M7457 2803 c-4 -3 -7 -14 -7 -23 0 -9 -11 -22 -24 -28 -33 -15 -54
-52 -30 -52 25 0 74 56 74 85 0 26 -2 29 -13 18z"/>
<path d="M7393 2788 c-5 -7 -13 -21 -16 -30 -4 -10 -12 -18 -19 -18 -9 0 -8 3
2 10 12 8 11 10 -6 10 -11 0 -29 -7 -40 -15 -15 -12 -16 -16 -5 -24 21 -14 71
11 88 42 15 30 13 46 -4 25z"/>
<path d="M1100 2760 c0 -6 12 -22 28 -35 28 -25 92 -35 92 -14 0 8 -11 9 -32
5 -17 -3 -28 -3 -25 1 9 9 -32 53 -50 53 -7 0 -13 -5 -13 -10z"/>
<path d="M1530 2760 c0 -6 6 -13 13 -16 7 -2 14 -21 15 -41 3 -40 8 -53 23
-53 5 0 9 17 9 38 0 27 -7 45 -23 60 -25 24 -37 28 -37 12z"/>
<path d="M1298 2733 c6 -2 12 -12 12 -21 1 -9 11 -30 24 -45 l23 -28 16 25
c10 14 17 29 17 33 0 14 -57 43 -82 42 -12 0 -17 -3 -10 -6z"/>
<path d="M1513 2646 c-2 -55 0 -64 12 -60 8 4 15 14 15 23 0 9 3 25 6 37 3 12
-2 29 -13 43 -18 22 -18 21 -20 -43z"/>
<path d="M1135 2680 c-10 -16 3 -28 35 -35 35 -8 90 2 90 16 0 6 -9 8 -19 4
-11 -3 -36 1 -56 10 -44 18 -42 18 -50 5z"/>
<path d="M1470 2649 c0 -15 -9 -38 -20 -52 -11 -14 -20 -32 -20 -41 0 -14 4
-15 21 -6 12 7 18 18 15 26 -3 8 0 13 7 11 16 -3 21 47 8 70 -9 16 -10 15 -11
-8z"/>
<path d="M1281 2621 c-12 -12 -29 -21 -38 -20 -16 0 -15 2 2 9 15 7 11 9 -20
7 -52 -3 -52 -21 1 -25 29 -2 48 3 65 17 13 10 21 22 17 26 -3 4 -16 -3 -27
-14z"/>
<path d="M1417 2633 c-4 -3 -7 -14 -7 -23 0 -9 -11 -22 -24 -28 -33 -15 -54
-52 -30 -52 25 0 74 56 74 85 0 26 -2 29 -13 18z"/>
<path d="M1353 2618 c-5 -7 -13 -21 -16 -30 -4 -10 -12 -18 -19 -18 -9 0 -8 3
2 10 12 8 11 10 -6 10 -11 0 -29 -7 -40 -15 -15 -12 -16 -16 -5 -24 21 -14 71
11 88 42 15 30 13 46 -4 25z"/>
<path d="M7236 2521 c-22 -23 -27 -37 -24 -60 3 -23 0 -32 -13 -36 -9 -3 -27
-30 -39 -59 -20 -50 -20 -56 -6 -90 8 -20 20 -36 27 -36 8 0 8 4 1 13 -12 14
2 47 14 35 4 -4 18 7 33 26 14 18 32 31 39 28 17 -5 15 1 -8 28 -11 13 -20 18
-20 12 0 -7 -5 -12 -11 -12 -6 0 -9 8 -7 18 2 11 11 16 26 14 17 -3 22 2 22
18 0 16 -5 20 -22 18 -35 -5 -32 20 6 56 20 18 36 38 36 44 0 21 -25 13 -54
-17z"/>
<path d="M7345 2530 c-4 -6 -14 -10 -24 -10 -21 0 -54 -45 -48 -63 2 -7 9 -2
16 11 6 12 21 22 32 22 24 0 59 17 59 29 0 13 -29 22 -35 11z"/>
<path d="M7162 2505 c-15 -33 -15 -95 -1 -95 7 0 9 10 7 25 -3 14 -2 25 1 25
11 0 41 57 34 64 -13 13 -30 5 -41 -19z"/>
<path d="M7095 2451 c-6 -37 9 -81 27 -81 11 0 10 18 -2 25 -6 4 -6 15 0 31
14 36 12 64 -4 64 -9 0 -17 -15 -21 -39z m12 -33 c-3 -8 -6 -5 -6 6 -1 11 2
17 5 13 3 -3 4 -12 1 -19z"/>
<path d="M7353 2475 c-29 -20 -31 -40 -4 -25 11 5 38 10 61 10 29 0 40 4 38
13 -7 18 -70 20 -95 2z m50 -2 c-7 -2 -19 -2 -25 0 -7 3 -2 5 12 5 14 0 19 -2
13 -5z"/>
<path d="M7284 2418 c3 -13 5 -25 5 -27 1 -2 8 2 16 9 12 10 13 16 4 26 -17
21 -29 17 -25 -8z"/>
<path d="M7398 2433 c-10 -2 -18 -9 -18 -14 0 -13 24 -11 38 3 8 8 12 8 12 1
0 -14 56 -37 69 -29 13 8 4 32 -12 34 -7 1 -25 4 -42 6 -16 2 -38 2 -47 -1z"/>
<path d="M7047 2424 c-19 -20 28 -115 57 -114 6 1 2 8 -9 18 -14 12 -20 29
-20 56 0 37 -13 55 -28 40z m20 -66 c-3 -8 -6 -5 -6 6 -1 11 2 17 5 13 3 -3 4
-12 1 -19z"/>
<path d="M7357 2400 c3 -11 10 -23 16 -27 6 -4 7 -1 2 8 -6 11 -5 11 5 2 16
-15 4 -34 -18 -27 -12 4 -13 3 -4 -3 7 -5 10 -17 6 -26 -3 -9 -2 -17 4 -17 6
0 12 5 14 10 2 7 11 5 23 -4 11 -8 16 -18 12 -22 -4 -5 -12 -2 -16 5 -7 11
-13 9 -30 -8 -25 -25 -29 -71 -6 -71 22 0 18 -23 -7 -56 l-23 -29 26 20 c14
10 33 29 42 42 22 28 34 123 17 123 -7 0 -9 7 -6 16 7 17 -19 60 -44 74 -15 8
-17 6 -13 -10z"/>
<path d="M1452 2358 c-24 -27 -40 -78 -23 -78 6 0 11 8 11 18 0 10 14 26 30
35 31 18 41 47 17 47 -8 0 -23 -10 -35 -22z m18 -2 c0 -2 -8 -10 -17 -17 -16
-13 -17 -12 -4 4 13 16 21 21 21 13z"/>
<path d="M7420 2369 c0 -7 11 -9 28 -6 16 3 35 0 46 -9 11 -8 15 -14 9 -14 -7
0 -15 5 -18 10 -3 6 -11 10 -17 10 -6 0 -1 -11 12 -25 25 -27 50 -33 50 -12 0
24 -45 57 -78 57 -18 0 -32 -5 -32 -11z"/>
<path d="M1404 2362 c-24 -16 -40 -53 -36 -82 2 -16 8 -27 13 -25 4 3 6 12 2
21 -3 8 4 25 17 39 21 23 25 61 4 47z"/>
<path d="M1528 2357 c-27 -10 -57 -52 -45 -63 4 -4 11 5 16 20 6 14 13 26 16
26 4 0 3 -5 0 -10 -4 -7 3 -8 22 -4 35 8 43 13 43 24 0 14 -24 17 -52 7z"/>
<path d="M7017 2337 c-4 -12 31 -77 41 -77 4 0 18 -3 31 -7 17 -4 22 -3 17 5
-4 7 -19 12 -34 12 -18 0 -23 3 -14 9 10 6 11 13 1 34 -13 29 -36 42 -42 24z"/>
<path d="M1327 2323 c-17 -28 -16 -71 0 -92 18 -22 18 -21 20 39 1 53 -7 75
-20 53z"/>
<path d="M1552 2304 c-15 -13 -22 -24 -15 -24 6 0 15 5 19 11 3 6 20 8 38 5
34 -6 73 9 46 18 -48 15 -62 13 -88 -10z"/>
<path d="M7440 2310 c0 -5 7 -10 16 -10 8 0 21 -15 29 -34 8 -19 20 -38 26
-42 20 -12 27 18 10 47 -21 36 -81 66 -81 39z"/>
<path d="M1428 2268 c-34 -12 -73 -87 -64 -123 7 -26 46 -68 55 -59 3 3 -2 11
-12 18 -9 7 -17 15 -17 18 0 2 21 20 46 38 28 22 43 40 41 50 -3 8 -8 24 -12
35 -5 16 -5 17 4 5 9 -13 11 -12 11 6 0 23 -11 25 -52 12z m18 -45 c-10 -10
-19 5 -10 18 6 11 8 11 12 0 2 -7 1 -15 -2 -18z"/>
<path d="M1490 2261 c0 -11 4 -22 9 -25 11 -7 23 22 15 35 -9 16 -24 10 -24
-10z"/>
<path d="M1598 2273 c-10 -2 -18 -9 -18 -15 0 -6 7 -7 18 -3 31 13 58 18 44 8
-9 -7 -7 -12 11 -20 26 -12 50 -4 39 14 -8 13 -69 24 -94 16z"/>
<path d="M1276 2261 c-15 -24 21 -101 48 -101 6 1 0 10 -13 20 -13 11 -18 20
-12 20 7 0 9 10 5 28 -8 33 -20 47 -28 33z"/>
<path d="M1558 2243 c6 -10 8 -33 6 -50 -4 -33 4 -41 22 -23 6 6 14 3 22 -10
13 -21 3 -27 -15 -9 -8 8 -16 4 -28 -14 -18 -28 -16 -64 3 -59 17 3 15 -19 -4
-47 -16 -22 -16 -22 5 -9 24 15 61 84 61 115 0 16 5 19 25 15 14 -2 28 -9 32
-15 3 -6 1 -7 -5 -3 -15 9 -15 3 0 -29 11 -24 38 -35 38 -15 0 39 -54 86 -90
78 -7 -2 -14 7 -16 20 -5 31 32 30 58 -3 21 -26 48 -34 48 -12 -1 23 -50 49
-86 45 -19 -2 -34 -1 -34 3 0 4 -12 14 -26 24 -24 16 -25 16 -16 -2z m23 -36
c-10 -9 -11 -8 -5 6 3 10 9 15 12 12 3 -3 0 -11 -7 -18z"/>
<path d="M7010 2250 c0 -6 12 -22 28 -35 28 -25 92 -35 92 -14 0 8 -11 9 -32
5 -17 -3 -28 -3 -25 1 9 9 -32 53 -50 53 -7 0 -13 -5 -13 -10z"/>
<path d="M7440 2250 c0 -6 6 -13 13 -16 7 -2 14 -21 15 -41 3 -40 8 -53 23
-53 5 0 9 17 9 38 0 27 -7 45 -23 60 -25 24 -37 28 -37 12z"/>
<path d="M7208 2223 c6 -2 12 -12 12 -21 1 -9 11 -30 24 -45 l23 -28 16 25
c10 14 17 29 17 33 0 14 -57 43 -82 42 -12 0 -17 -3 -10 -6z"/>
<path d="M7423 2136 c-2 -55 0 -64 12 -60 8 4 15 14 15 23 0 9 3 25 6 37 3 12
-2 29 -13 43 -18 22 -18 21 -20 -43z"/>
<path d="M1247 2184 c-10 -11 23 -65 35 -58 7 4 8 3 4 -4 -4 -7 -3 -12 3 -12
5 0 16 -3 25 -6 9 -3 16 -1 16 5 0 6 -6 11 -13 11 -7 0 -21 16 -30 35 -16 34
-27 42 -40 29z"/>
<path d="M7045 2170 c-10 -16 3 -28 35 -35 35 -8 90 2 90 16 0 6 -9 8 -19 4
-11 -3 -36 1 -56 10 -44 18 -42 18 -50 5z"/>
<path d="M7380 2139 c0 -15 -9 -38 -20 -52 -11 -14 -20 -32 -20 -41 0 -14 4
-15 21 -6 12 7 18 18 15 26 -3 8 0 13 7 11 16 -3 21 47 8 70 -9 16 -10 15 -11
-8z"/>
<path d="M7191 2111 c-12 -12 -29 -21 -38 -20 -16 0 -15 2 2 9 15 7 11 9 -20
7 -52 -3 -52 -21 1 -25 29 -2 48 3 65 17 13 10 21 22 17 26 -3 4 -16 -3 -27
-14z"/>
<path d="M7327 2123 c-4 -3 -7 -14 -7 -23 0 -9 -11 -22 -24 -28 -33 -15 -54
-52 -30 -52 25 0 74 56 74 85 0 26 -2 29 -13 18z"/>
<path d="M7263 2108 c-5 -7 -13 -21 -16 -30 -4 -10 -12 -18 -19 -18 -9 0 -8 3
2 10 12 8 11 10 -6 10 -11 0 -29 -7 -40 -15 -15 -12 -16 -16 -5 -24 21 -14 71
11 88 42 15 30 13 46 -4 25z"/>
<path d="M1240 2099 c0 -22 45 -48 80 -47 20 0 26 2 14 5 -12 2 -32 15 -45 29
-23 25 -49 32 -49 13z"/>
<path d="M1643 2092 c10 -10 17 -33 17 -50 0 -29 16 -42 32 -26 10 9 -11 68
-29 82 -25 18 -38 15 -20 -6z m34 -44 c-3 -8 -6 -5 -6 6 -1 11 2 17 5 13 3 -3
4 -12 1 -19z"/>
<path d="M1430 2068 c1 -13 10 -34 21 -48 l21 -25 20 24 19 24 -28 23 c-36 30
-53 30 -53 2z"/>
<path d="M1618 2043 c6 -10 6 -29 0 -51 -12 -45 6 -69 22 -28 5 15 10 34 10
42 0 21 -19 54 -31 54 -6 0 -7 -6 -1 -17z m19 -55 c-3 -8 -6 -5 -6 6 -1 11 2
17 5 13 3 -3 4 -12 1 -19z"/>
<path d="M1270 2026 c0 -8 14 -19 31 -25 34 -12 79 -5 79 11 0 6 -7 7 -16 4
-8 -3 -28 1 -44 9 -36 19 -50 19 -50 1z"/>
<path d="M1584 1992 c3 -19 2 -31 -3 -27 -14 8 -43 -37 -32 -48 13 -13 34 2
27 19 -3 8 0 13 7 11 16 -3 21 38 7 60 -9 15 -10 12 -6 -15z"/>
<path d="M1401 1973 c-7 -11 -11 -13 -11 -5 0 20 -65 11 -65 -8 0 -11 9 -14
30 -12 35 3 75 22 75 34 0 14 -19 9 -29 -9z"/>
<path d="M1527 1977 c-4 -11 -5 -23 -2 -28 4 -5 0 -6 -8 -4 -18 8 -54 -32 -41
-45 16 -16 66 43 62 71 -3 21 -4 22 -11 6z"/>
<path d="M1467 1966 c-3 -7 -22 -16 -41 -20 -22 -4 -36 -13 -36 -21 0 -20 26
-19 34 0 3 8 11 15 18 15 9 0 8 -3 -2 -10 -13 -8 -13 -10 2 -10 10 0 24 14 33
30 9 17 11 30 6 30 -5 0 -11 -6 -14 -14z"/>
<path d="M7133 1953 c-10 -4 -13 -41 -13 -139 0 -100 -3 -133 -12 -128 -7 5
-8 3 -3 -5 4 -7 11 -9 16 -4 13 13 30 113 27 163 -1 25 1 55 6 67 8 26 -3 52
-21 46z"/>
<path d="M7033 1874 c3 -57 9 -77 31 -110 l28 -39 -4 64 c-3 37 -10 67 -16 69
-7 2 -12 14 -12 26 0 12 -7 31 -15 42 -14 17 -15 13 -12 -52z"/>
<path d="M7221 1913 c-9 -16 -12 -16 -21 -3 -9 11 -10 8 -5 -16 4 -23 2 -33
-9 -37 -12 -5 -16 -21 -16 -62 0 -41 3 -54 12 -49 6 4 -1 -9 -16 -28 -32 -42
-23 -54 31 -39 39 11 79 14 56 4 -7 -2 -13 -13 -13 -24 0 -18 7 -19 64 -18 35
1 68 -1 74 -5 15 -9 42 4 42 20 0 8 -9 14 -21 14 -15 0 -19 5 -15 15 7 20 -8
19 -24 0 -9 -11 -16 -13 -24 -5 -5 5 -24 10 -40 10 l-30 0 39 20 c22 11 45 20
51 20 19 0 60 38 50 47 -5 4 -11 3 -13 -3 -7 -19 -45 -4 -39 15 3 9 -2 6 -10
-6 -9 -13 -26 -23 -38 -23 -11 0 -37 -9 -56 -20 l-35 -21 38 32 c20 17 37 37
37 45 0 8 5 14 10 14 16 0 50 39 50 57 0 15 -2 14 -16 -3 -8 -10 -12 -12 -8
-4 6 12 4 13 -7 3 -18 -18 -27 -16 -32 5 -3 10 -5 6 -6 -10 0 -16 -6 -28 -12
-28 -7 0 -27 -17 -47 -37 l-34 -37 20 41 c12 22 18 43 15 47 -3 3 -1 12 6 19
6 8 10 26 9 41 -3 31 -4 31 -17 9z"/>
<path d="M1693 1758 l-1 -143 13 65 c7 35 12 94 10 130 -3 88 -4 90 -13 90 -5
0 -9 -64 -9 -142z"/>
<path d="M1591 1814 c1 -35 9 -73 20 -94 35 -68 39 -69 39 -8 0 37 -5 62 -15
72 -8 8 -15 26 -15 39 0 14 -7 30 -15 37 -14 11 -15 6 -14 -46z"/>
<path d="M1778 1836 c-10 -7 -18 -20 -18 -29 0 -8 -6 -17 -12 -19 -9 -3 -14
-28 -15 -72 -1 -71 -23 -122 -48 -112 -9 3 -12 0 -9 -8 3 -8 -8 -23 -25 -35
-23 -17 -29 -18 -25 -7 4 11 0 16 -13 16 -32 0 -123 -30 -123 -40 0 -6 -11
-10 -24 -10 -29 0 -75 -35 -62 -47 5 -4 11 -3 13 3 6 19 52 4 47 -15 -3 -9 2
-4 10 11 10 17 22 25 31 22 8 -3 28 1 44 9 l31 15 -33 -39 c-17 -21 -39 -41
-48 -44 -17 -6 -41 -49 -32 -59 3 -3 15 1 27 9 27 19 34 19 39 -2 3 -10 5 -5
6 12 1 21 8 33 24 40 12 6 44 40 72 77 27 36 54 64 59 60 6 -3 5 -7 -2 -10 -8
-2 -12 -38 -12 -120 0 -125 8 -157 27 -116 6 14 7 26 2 30 -5 3 -5 13 1 24 6
11 13 46 16 79 6 49 3 66 -13 93 -22 38 -15 52 27 54 14 0 43 4 65 7 22 3 33
4 24 1 -10 -3 -19 -14 -22 -24 -6 -23 21 -30 108 -26 82 4 85 5 85 15 0 5 -10
7 -22 3 -14 -3 -19 -2 -14 6 4 7 1 12 -10 12 -13 0 -14 3 -4 15 7 8 8 15 2 15
-5 0 -15 -6 -21 -14 -9 -10 -18 -11 -45 -2 l-34 10 29 18 c16 10 38 18 48 18
10 0 25 8 34 18 14 16 14 17 -10 19 -14 0 -29 7 -33 13 -6 9 -11 7 -19 -8 -6
-12 -17 -19 -25 -16 -8 3 -29 -2 -47 -12 l-34 -17 34 39 c19 21 44 44 56 51
12 7 25 21 28 32 5 19 -3 21 -37 6 -12 -5 -21 -3 -27 6 -6 10 -9 6 -9 -13 0
-17 -5 -28 -14 -28 -8 0 -31 -19 -51 -42 -25 -29 -30 -33 -16 -11 12 17 24 45
27 62 4 17 11 34 15 37 11 6 12 54 2 54 -5 0 -16 -7 -25 -14z m-61 -378 c-3
-8 -6 -5 -6 6 -1 11 2 17 5 13 3 -3 4 -12 1 -19z"/>
<path d="M6850 1782 c0 -4 9 -13 21 -20 17 -11 18 -16 8 -28 -10 -12 -8 -13
12 -6 28 11 37 41 17 53 -16 11 -58 12 -58 1z"/>
<path d="M1410 1711 c0 -5 10 -16 23 -24 19 -14 20 -18 7 -28 -13 -9 -12 -10
3 -5 10 3 23 6 28 6 16 0 10 48 -7 54 -23 9 -54 7 -54 -3z"/>
<path d="M7000 1634 c-30 -8 -61 -21 -70 -29 -9 -8 -26 -15 -37 -15 -22 0 -47
-23 -36 -33 3 -4 15 -7 25 -7 10 0 18 -6 18 -12 0 -7 9 -2 20 12 10 14 22 22
26 18 3 -4 25 2 47 14 40 20 40 20 -19 -38 -62 -61 -89 -102 -58 -90 8 3 18 6
20 6 3 0 2 4 -1 10 -4 7 3 7 19 0 23 -8 26 -7 26 10 0 11 5 20 12 20 6 0 20 7
30 17 17 15 18 15 12 -18 -4 -19 -13 -41 -20 -50 -16 -17 -19 -59 -5 -59 22 0
43 53 39 103 -2 45 2 58 30 99 40 58 40 65 3 39 -29 -21 -29 -21 -24 -1 3 11
4 20 2 19 -2 0 -29 -7 -59 -15z"/>
<path d="M7116 1604 c-10 -74 -7 -244 4 -244 6 0 10 9 10 20 0 11 7 23 15 26
10 4 12 11 7 18 -5 6 -6 36 -4 66 4 44 7 50 13 30 5 -20 7 -15 8 23 1 51 -14
92 -29 82 -6 -3 -7 1 -4 9 3 9 2 16 -4 16 -5 0 -12 -21 -16 -46z"/>
<path d="M7349 1593 c-11 -3 -15 -12 -11 -28 5 -27 40 -44 52 -25 6 9 9 9 13
1 3 -7 4 -7 3 1 -2 7 -10 12 -19 12 -9 -1 -15 2 -12 6 3 5 0 12 -6 16 -8 4 -7
9 2 15 14 9 6 10 -22 2z"/>
<path d="M1923 1520 c-26 -11 -31 -45 -7 -54 26 -10 54 -7 54 6 0 6 -3 8 -7 5
-12 -12 -32 27 -21 40 12 15 11 15 -19 3z"/>
<path d="M7323 1455 c0 -8 4 -12 9 -9 5 3 6 10 3 15 -9 13 -12 11 -12 -6z"/>
<path d="M7218 1420 c4 -43 22 -46 22 -3 0 20 4 24 18 19 14 -5 14 -4 -2 9
-32 25 -42 18 -38 -25z"/>
<path d="M1596 1425 c-5 -16 -15 -39 -22 -50 -16 -22 -19 -65 -5 -65 21 0 42
52 39 98 -3 45 -4 46 -12 17z"/>
<path d="M1781 1414 c0 -11 3 -14 6 -6 3 7 2 16 -1 19 -3 4 -6 -2 -5 -13z"/>
<path d="M1880 1393 c0 -23 15 -39 23 -26 3 5 -1 17 -9 28 -14 18 -14 18 -14
-2z"/>
<path d="M2150 1392 c0 -12 -5 -22 -11 -22 -5 0 -7 -5 -3 -12 4 -7 3 -8 -4 -4
-6 4 -34 -5 -62 -19 -31 -16 -59 -23 -71 -20 -18 6 -25 -8 -20 -38 2 -12 -119
-66 -135 -60 -8 3 -11 9 -8 14 3 5 1 9 -5 9 -24 0 -17 -19 18 -54 36 -36 58
-37 45 -2 -4 10 9 22 45 41 38 19 51 22 51 12 0 -8 12 -26 26 -40 l25 -25 -22
-44 c-12 -24 -20 -44 -18 -45 2 -1 0 -5 -5 -10 -5 -4 -6 -3 -3 3 8 14 -23 28
-35 16 -9 -9 84 -102 103 -102 7 0 9 9 6 21 -8 31 47 149 69 149 13 0 15 3 7
11 -14 14 54 159 74 159 7 0 13 5 13 11 0 6 -7 8 -16 5 -8 -3 -13 -2 -10 2 6
10 -2 21 -31 46 -23 19 -23 19 -23 -2z m-53 -121 c-12 -27 -23 -45 -25 -40 -7
19 -19 8 -17 -16 4 -29 -3 -32 -21 -7 -26 34 -17 57 34 85 26 15 48 27 49 27
1 0 -8 -22 -20 -49z m-82 21 c-3 -3 -11 0 -18 7 -9 10 -8 11 6 5 10 -3 15 -9
12 -12z"/>
<path d="M1780 1350 c0 -37 14 -60 28 -45 4 4 2 10 -4 12 -17 6 -5 41 14 45
11 2 8 7 -11 15 -27 12 -27 12 -27 -27z"/>
<path d="M6655 1370 c-3 -5 -3 -14 0 -20 4 -6 -1 -7 -11 -3 -12 4 -15 3 -10
-5 4 -7 1 -12 -7 -12 -8 0 -20 -7 -27 -15 -10 -13 -9 -15 8 -15 12 0 39 -22
67 -55 26 -30 51 -52 56 -49 5 3 9 0 9 -5 0 -6 -4 -11 -10 -11 -5 0 -10 -4
-10 -10 0 -5 6 -7 14 -4 7 3 32 -16 59 -46 28 -31 47 -45 50 -38 3 7 6 3 6
-10 1 -13 -3 -21 -8 -17 -13 7 -21 -8 -12 -23 4 -7 39 21 99 81 l92 93 -30 34
c-16 19 -29 46 -30 58 0 14 -5 22 -12 20 -16 -6 -23 -48 -9 -48 7 0 9 -11 6
-27 -4 -23 -4 -25 4 -8 8 16 10 9 10 -29 1 -27 -2 -46 -6 -43 -3 4 -12 -2 -20
-13 -8 -11 -20 -20 -26 -20 -20 0 -97 83 -97 104 0 11 -5 16 -14 13 -17 -7
-131 107 -122 122 4 6 3 11 -3 11 -5 0 -13 -4 -16 -10z m240 -268 c-3 -3 -11
0 -18 7 -9 10 -8 11 6 5 10 -3 15 -9 12 -12z"/>
<path d="M1910 1255 c-25 -13 -40 -24 -35 -24 6 0 30 11 55 24 25 13 41 24 35
24 -5 0 -30 -11 -55 -24z"/>
<path d="M2333 1228 c2 -7 -17 -38 -43 -68 -26 -30 -50 -62 -53 -70 -3 -9 -6
-10 -6 -2 -1 19 -21 14 -21 -5 0 -9 -9 -27 -21 -39 -11 -12 -21 -29 -23 -37
-5 -36 -49 -62 -59 -34 -3 8 -8 9 -15 2 -7 -7 17 -32 75 -80 116 -96 109 -93
152 -51 25 25 43 35 54 30 11 -4 17 -1 17 8 0 10 -10 15 -30 15 -16 0 -27 -4
-25 -8 7 -10 -52 -29 -84 -28 -22 1 -20 3 9 9 l35 7 -36 2 c-22 0 -43 9 -54
20 -16 19 -16 22 26 70 25 31 50 51 63 51 15 0 17 3 9 11 -15 15 84 142 104
135 7 -3 13 -2 13 3 0 11 -50 44 -51 34 0 -5 -4 2 -9 15 -10 23 -35 32 -27 10z
m-153 -293 c-7 -9 -15 -13 -17 -11 -7 7 7 26 19 26 6 0 6 -6 -2 -15z"/>
<path d="M6473 1196 c4 -10 0 -12 -15 -8 -17 4 -20 2 -15 -11 3 -9 3 -16 -1
-16 -18 3 -32 -2 -32 -11 0 -5 7 -10 15 -10 8 0 15 -5 15 -11 0 -5 5 -7 12 -3
8 5 9 2 5 -9 -8 -20 2 -49 13 -42 5 3 6 -5 2 -17 -3 -12 -1 -19 4 -15 6 3 9
-12 9 -39 -2 -31 2 -44 12 -44 7 0 13 -5 13 -11 0 -5 5 -7 12 -3 7 4 8 3 4 -4
-4 -7 1 -37 10 -67 12 -36 21 -51 26 -43 6 10 8 10 8 0 0 -7 -7 -15 -15 -18
-17 -7 -20 -24 -4 -24 15 0 79 50 79 62 0 6 -9 8 -20 5 -16 -4 -24 2 -34 27
-29 69 -29 75 -1 82 14 3 31 15 38 25 13 18 15 17 50 -7 21 -14 42 -22 47 -19
6 3 10 -3 10 -15 0 -12 -4 -19 -9 -15 -5 3 -12 1 -15 -4 -4 -5 -2 -13 4 -16
14 -8 122 83 114 96 -3 6 -14 7 -25 4 -26 -8 -142 63 -134 82 3 10 -1 13 -14
8 -24 -7 -153 74 -146 93 2 6 -3 12 -11 12 -10 0 -14 -6 -11 -14z m97 -154
c-6 -2 -10 -8 -10 -13 0 -4 6 -6 14 -3 19 7 32 -16 15 -27 -31 -20 -55 -10
-68 29 -8 20 -16 43 -19 51 -3 8 10 5 36 -10 23 -13 37 -25 32 -27z m-69 -65
c-10 -9 -11 -8 -5 6 3 10 9 15 12 12 3 -3 0 -11 -7 -18z"/>
<path d="M2554 1058 c3 -9 -8 -34 -25 -58 -16 -22 -27 -46 -23 -52 4 -7 3 -8
-4 -4 -13 8 -35 -28 -24 -39 4 -4 0 -6 -8 -3 -17 5 -43 -38 -33 -56 3 -6 3 -8
-2 -4 -4 4 -14 3 -22 -3 -16 -14 -18 -33 -1 -23 7 4 8 3 4 -5 -4 -6 -11 -9
-16 -6 -4 3 -13 -2 -20 -10 -10 -12 -10 -15 1 -15 9 0 10 -3 3 -10 -12 -12
-47 -2 -38 11 3 5 0 9 -5 9 -6 0 -11 -6 -11 -14 0 -19 77 -69 86 -55 3 6 1 16
-5 22 -7 7 6 33 46 91 71 103 70 102 65 66 -2 -18 -9 -27 -15 -23 -6 4 -8 0
-4 -10 4 -10 -2 -58 -12 -107 -12 -57 -15 -90 -8 -90 6 0 44 26 86 57 41 31
77 51 79 45 2 -6 11 -8 20 -5 15 5 15 4 1 -8 -26 -23 -50 -69 -43 -81 5 -7 3
-8 -6 -3 -10 6 -12 4 -7 -8 4 -10 2 -16 -6 -14 -7 1 -11 -6 -9 -15 2 -11 -3
-18 -13 -18 -9 0 -13 5 -10 10 3 6 -1 10 -9 10 -35 0 -22 -20 35 -54 67 -40
79 -43 79 -21 0 8 -4 15 -10 15 -5 0 -10 5 -10 11 0 20 64 119 77 119 7 0 12
8 10 18 -3 28 65 142 86 142 10 0 15 5 12 11 -4 6 -13 8 -20 5 -7 -2 -16 2
-19 10 -3 9 -10 13 -15 10 -5 -4 -11 -1 -13 6 -4 12 -198 -128 -198 -143 0 -5
-4 -9 -9 -9 -14 0 0 41 16 47 10 4 11 9 3 18 -7 9 -4 38 10 100 16 67 18 91 9
101 -7 8 -14 12 -17 10 -2 -3 -13 5 -24 17 -14 16 -18 17 -14 5z m176 -182 c0
-2 -8 -10 -17 -17 -16 -13 -17 -12 -4 4 13 16 21 21 21 13z m-40 -30 c0 -2 -8
-10 -17 -17 -16 -13 -17 -12 -4 4 13 16 21 21 21 13z m-40 -30 c0 -2 -8 -10
-17 -17 -16 -13 -17 -12 -4 4 13 16 21 21 21 13z m40 -16 c-6 -11 -18 -20 -28
-20 -14 1 -13 4 7 20 29 25 34 25 21 0z m-47 -195 c-3 -9 -8 -14 -10 -11 -3 3
-2 9 2 15 9 16 15 13 8 -4z"/>
<path d="M6219 1010 c-20 -11 -39 -26 -42 -35 -4 -8 -16 -15 -27 -15 -11 0
-20 -4 -20 -9 0 -5 -10 -12 -22 -16 -22 -7 -22 -8 -3 -12 27 -5 98 -119 90
-144 -5 -14 -1 -19 12 -19 12 0 29 -18 48 -49 16 -29 33 -47 39 -43 6 3 3 -6
-6 -21 -22 -32 -22 -37 -4 -37 18 0 165 96 187 123 11 13 18 38 19 60 0 48
-43 97 -87 97 -27 0 -28 3 -28 41 0 34 -6 46 -33 70 -38 34 -71 36 -123 9z
m67 -54 c18 -18 35 -32 37 -30 1 2 3 -14 2 -35 0 -21 -4 -38 -10 -39 -5 0 -19
-3 -31 -7 -17 -5 -25 0 -41 28 -11 18 -28 45 -37 59 -15 24 -16 27 -1 42 24
24 43 20 81 -18z m51 -78 c-3 -8 -6 -5 -6 6 -1 11 2 17 5 13 3 -3 4 -12 1 -19z
m67 -69 c14 -17 26 -27 26 -22 0 4 5 0 11 -10 14 -23 3 -55 -19 -53 -9 0 -17
-5 -17 -13 0 -8 -10 -15 -22 -16 -17 -1 -32 12 -59 54 l-37 55 23 18 c33 27
65 22 94 -13z m-193 -32 c-10 -9 -11 -8 -5 6 3 10 9 15 12 12 3 -3 0 -11 -7
-18z m144 -106 c-6 -5 -25 10 -25 20 0 5 6 4 14 -3 8 -7 12 -15 11 -17z m-45
-25 c0 -2 -8 -10 -17 -17 -16 -13 -17 -12 -4 4 13 16 21 21 21 13z"/>
<path d="M6431 754 c0 -11 3 -14 6 -6 3 7 2 16 -1 19 -3 4 -6 -2 -5 -13z"/>
<path d="M2139 983 c-13 -16 -12 -17 4 -4 16 13 21 21 13 21 -2 0 -10 -8 -17
-17z"/>
<path d="M5896 819 c-14 -11 -24 -24 -21 -29 7 -12 -6 -41 -16 -34 -5 3 -6
-10 -4 -28 4 -26 3 -29 -4 -13 -8 16 -10 12 -10 -23 -1 -24 3 -41 8 -38 4 3 6
-6 3 -19 -2 -15 0 -25 7 -25 6 0 11 -5 11 -11 0 -5 -4 -8 -9 -4 -5 3 -12 1
-16 -5 -3 -5 0 -10 7 -10 7 0 26 -16 42 -36 36 -46 106 -78 153 -71 48 8 99
50 113 93 8 22 10 56 6 88 -4 28 -8 61 -9 74 -1 12 -6 21 -11 19 -6 -2 -23 11
-38 29 -57 64 -159 85 -212 43z m110 -43 c64 -74 78 -96 55 -81 -5 3 -12 1
-16 -5 -3 -5 1 -10 9 -10 8 0 21 -9 29 -20 8 -11 16 -17 20 -14 3 3 3 -4 0
-17 -4 -12 -2 -20 3 -16 5 3 8 -13 7 -36 l-2 -42 8 35 8 35 2 -31 c0 -16 -6
-39 -15 -50 -8 -10 -13 -13 -9 -7 4 9 1 11 -9 7 -9 -3 -14 -9 -11 -13 2 -4
-12 -5 -32 -2 -28 5 -45 16 -70 50 -22 28 -32 50 -28 62 4 13 1 19 -8 19 -19
0 -47 70 -47 115 0 62 61 75 106 21z"/>
<path d="M2945 810 c16 -8 13 -9 -16 -5 -32 5 -40 1 -63 -26 -14 -17 -29 -41
-32 -53 -7 -30 15 -83 53 -127 52 -59 73 -100 62 -121 -5 -10 -14 -18 -20 -18
-6 0 -7 5 -3 12 4 7 3 8 -5 4 -6 -4 -9 -12 -6 -17 4 -5 -8 -9 -26 -9 -18 0
-30 2 -27 5 3 3 -10 21 -28 39 -30 30 -34 41 -34 84 0 73 -38 86 -43 15 -1
-17 -6 -29 -11 -25 -5 3 -7 -2 -3 -11 4 -10 2 -16 -6 -14 -7 1 -12 -5 -12 -13
0 -9 8 -14 19 -13 10 0 31 -14 48 -32 34 -39 86 -59 128 -50 36 8 90 67 90
100 0 16 6 25 15 25 18 0 20 16 4 26 -6 3 -15 0 -20 -7 -7 -11 -9 -11 -9 3 0
9 -22 43 -50 74 -54 62 -62 94 -29 117 44 31 90 -8 97 -83 3 -33 9 -50 18 -50
8 0 14 7 14 15 0 9 9 34 20 56 19 37 20 40 3 45 -20 6 -29 11 -64 36 -13 9
-37 19 -54 22 -25 5 -27 5 -10 -4z m-36 -13 c-2 -1 -13 -9 -24 -17 -19 -14
-19 -14 -6 3 7 9 18 17 24 17 6 0 8 -1 6 -3z"/>
<path d="M5587 683 c-9 -2 -15 -9 -12 -14 4 -5 -5 -9 -19 -9 -27 0 -35 -14
-13 -23 7 -2 23 -34 36 -71 13 -36 27 -66 33 -66 5 0 6 -5 3 -10 -4 -6 -11 -8
-16 -5 -5 4 -9 2 -9 -3 0 -6 6 -12 14 -15 8 -3 24 -33 37 -66 12 -34 26 -58
32 -54 5 3 7 0 5 -8 -3 -8 -12 -13 -22 -11 -9 2 -16 -4 -16 -13 0 -8 2 -15 5
-15 15 0 235 93 235 100 0 4 -7 25 -16 46 -12 29 -13 43 -5 56 15 24 14 28 -5
28 -8 0 -12 -4 -9 -10 3 -5 2 -10 -4 -10 -6 0 -8 -12 -5 -27 6 -34 -8 -88 -23
-88 -6 0 -15 -4 -20 -9 -5 -6 -2 -6 7 -1 8 5 12 5 8 0 -5 -5 -22 -10 -38 -12
-28 -3 -33 1 -51 45 -12 26 -22 58 -22 72 -1 14 -7 30 -14 35 -17 15 -64 137
-59 152 5 13 -4 15 -37 6z m138 -323 c3 -5 1 -10 -4 -10 -6 0 -11 5 -11 10 0
6 2 10 4 10 3 0 8 -4 11 -10z"/>
<path d="M3344 601 c-39 -24 -96 -92 -89 -108 2 -7 0 -13 -4 -13 -5 0 -11 6
-14 13 -2 6 -3 -23 -2 -65 3 -84 20 -126 66 -161 35 -25 109 -33 151 -16 18 7
40 12 49 11 11 -2 19 11 27 49 7 29 20 58 30 65 15 12 15 13 -9 14 -14 0 -31
6 -38 13 -11 10 -12 9 -5 -3 6 -12 2 -11 -19 3 -34 22 -54 23 -37 2 10 -13 11
-24 1 -56 -7 -23 -10 -44 -7 -47 14 -14 -29 -42 -63 -41 -20 0 -30 3 -22 6 9
4 2 10 -19 19 -32 14 -32 14 -28 75 3 43 10 66 21 74 10 7 15 19 11 28 -8 21
41 114 65 122 43 13 86 -27 100 -96 9 -42 35 -46 38 -5 1 16 6 41 12 57 9 27
6 39 -11 39 -5 0 -6 -6 -1 -12 4 -7 -6 -4 -22 6 -79 52 -128 59 -181 27z m-4
-15 c0 -2 -8 -10 -17 -17 -16 -13 -17 -12 -4 4 13 16 21 21 21 13z"/>
<path d="M5429 613 c-1 -5 -1 -11 -1 -14 1 -4 -14 -5 -33 -2 -19 3 -50 -1 -70
-7 -44 -15 -88 -65 -79 -92 4 -15 3 -18 -6 -13 -10 6 -11 -1 -6 -31 5 -30 4
-36 -4 -24 -9 12 -10 8 -5 -15 11 -49 11 -50 -5 -47 -12 3 -11 0 3 -15 10 -10
28 -33 40 -52 12 -19 34 -43 48 -53 29 -22 95 -34 133 -24 32 8 85 53 97 82 5
16 14 22 24 18 19 -8 19 -5 -5 57 -12 29 -19 58 -16 66 3 7 -1 13 -10 13 -8 0
-13 -4 -10 -9 4 -5 -4 -7 -16 -3 -14 3 -19 1 -14 -6 4 -7 -2 -9 -18 -6 -14 2
-28 0 -31 -6 -3 -5 -2 -10 4 -10 12 0 54 -126 46 -140 -3 -6 -10 -8 -15 -5 -5
3 -12 0 -16 -6 -5 -8 -3 -9 6 -4 8 5 11 4 7 -2 -9 -14 -83 -9 -102 7 -27 22
-47 71 -43 101 3 19 0 29 -8 29 -18 0 -30 105 -15 136 16 37 78 34 121 -6 35
-33 60 -39 60 -15 0 8 -4 15 -9 15 -4 0 -14 20 -21 45 -11 39 -28 59 -31 38z
m-129 -46 c0 -2 -10 -12 -22 -23 l-23 -19 19 23 c18 21 26 27 26 19z"/>
<path d="M3667 532 c2 -10 -3 -47 -12 -81 -8 -34 -13 -66 -10 -71 3 -5 1 -11
-5 -15 -5 -3 -10 -1 -10 5 0 6 -5 8 -10 5 -8 -5 -8 -11 0 -20 8 -10 8 -25 0
-55 -6 -23 -9 -48 -6 -56 8 -22 -4 -44 -26 -44 -12 0 -17 4 -12 13 5 9 3 9 -7
-1 -19 -17 -4 -26 73 -42 62 -14 85 -7 55 15 -17 12 -18 19 -7 72 7 32 19 65
27 75 8 9 10 18 5 22 -14 8 20 155 38 166 12 8 11 10 -5 10 -12 0 -26 5 -33
12 -9 9 -12 9 -12 -2 0 -11 -3 -11 -12 -2 -18 18 -37 14 -31 -6z m-7 -327 c0
-8 -4 -15 -10 -15 -5 0 -7 7 -4 15 4 8 8 15 10 15 2 0 4 -7 4 -15z"/>
<path d="M3051 504 c-6 -15 -10 -27 -9 -29 2 -1 27 -12 57 -24 52 -22 55 -22
68 -5 22 30 15 39 -39 60 -29 10 -55 20 -58 22 -4 1 -12 -9 -19 -24z"/>
<path d="M3815 504 c10 -26 36 -156 33 -174 -1 -8 4 -26 10 -40 6 -14 18 -58
28 -98 10 -44 21 -71 28 -69 6 2 30 37 53 78 23 41 49 79 58 85 8 6 12 13 9
16 -7 7 61 144 76 153 19 12 -1 26 -35 23 -33 -2 -33 -2 -17 -27 9 -15 12 -23
7 -18 -11 9 -97 -151 -88 -166 4 -6 1 -7 -7 -2 -10 6 -12 4 -7 -8 3 -10 3 -17
-2 -17 -12 0 -20 49 -9 56 5 3 3 11 -5 17 -8 7 -22 45 -31 86 -13 60 -14 77
-4 89 11 13 10 15 -3 10 -9 -4 -20 -3 -25 2 -5 4 -24 11 -43 15 -31 7 -33 5
-26 -11z m185 -204 c-6 -11 -13 -20 -16 -20 -2 0 0 9 6 20 6 11 13 20 16 20 2
0 0 -9 -6 -20z"/>
<path d="M4781 472 c-19 -9 -41 -28 -50 -42 -14 -21 -14 -23 -1 -16 12 6 11 4
-1 -6 -9 -7 -14 -19 -11 -27 3 -9 0 -11 -8 -6 -9 5 -10 2 -5 -15 5 -17 4 -20
-5 -15 -9 6 -11 -1 -8 -27 3 -28 1 -35 -11 -30 -15 6 -15 7 17 -59 37 -75 83
-116 137 -120 66 -5 86 2 129 41 23 22 46 37 49 34 3 -3 5 28 4 70 -2 59 -5
75 -15 71 -8 -3 -23 -5 -33 -5 -11 0 -18 -4 -15 -8 3 -5 -9 -6 -27 -4 -31 5
-32 4 -14 -15 9 -11 17 -31 17 -46 0 -14 5 -29 10 -32 6 -3 10 -15 10 -26 0
-11 -4 -18 -9 -15 -10 7 -43 -28 -35 -37 4 -3 -11 -4 -32 0 -46 6 -70 30 -84
85 -9 30 -8 43 1 55 10 12 10 16 -1 23 -17 10 -17 98 0 129 8 15 21 21 47 21
29 0 43 -8 73 -40 20 -22 42 -40 48 -40 15 0 16 26 2 35 -5 3 -10 17 -10 30 0
30 -10 55 -22 55 -5 0 -7 -4 -4 -9 3 -4 -13 -5 -37 0 -60 12 -68 11 -106 -9z
m-11 -16 c0 -2 -8 -10 -17 -17 -16 -13 -17 -12 -4 4 13 16 21 21 21 13z m165
-305 c-3 -6 -11 -11 -17 -11 -6 0 -6 6 2 15 14 17 26 13 15 -4z"/>
<path d="M4169 457 c6 -8 10 -46 8 -94 -1 -63 -5 -79 -16 -75 -9 3 -12 -1 -8
-14 3 -10 7 -50 9 -89 3 -67 2 -70 -20 -69 -12 0 -21 -4 -19 -10 5 -15 147
-21 147 -6 0 6 -7 13 -15 16 -22 9 -21 121 2 146 9 11 11 18 5 18 -8 0 -12 26
-12 80 0 62 3 81 16 88 15 8 15 10 0 15 -9 4 -16 1 -16 -5 0 -9 -3 -9 -12 0
-15 15 -32 16 -23 2 3 -5 1 -10 -4 -10 -6 0 -11 5 -11 10 0 6 -10 10 -21 10
-17 0 -19 -3 -10 -13z m48 -339 c-3 -8 -6 -5 -6 6 -1 11 2 17 5 13 3 -3 4 -12
1 -19z"/>
<path d="M4567 462 c-11 -2 -16 -10 -13 -20 3 -9 8 -53 11 -97 3 -44 8 -91 11
-105 l5 -25 -16 23 c-9 12 -13 27 -10 32 3 6 0 10 -8 10 -8 0 -42 41 -77 90
-59 84 -65 90 -98 90 -30 0 -33 -2 -22 -15 9 -11 11 -36 6 -91 -5 -58 -4 -74
5 -68 8 4 9 3 5 -4 -4 -6 -14 -8 -24 -5 -14 5 -15 3 -4 -8 7 -7 12 -42 13 -83
1 -51 3 -64 9 -46 7 21 8 21 9 5 1 -29 -13 -47 -32 -39 -12 4 -17 1 -17 -10 0
-13 11 -16 55 -16 40 0 55 4 55 14 0 7 -10 16 -21 19 -20 5 -21 10 -16 59 4
29 7 80 7 113 l0 60 20 -30 c11 -16 18 -36 15 -42 -2 -7 2 -13 9 -13 8 0 41
-38 75 -85 43 -59 68 -85 83 -85 19 0 20 4 13 80 -5 58 -4 85 5 95 7 8 8 15 3
15 -6 0 -13 35 -17 77 -6 67 -5 79 10 90 10 7 16 14 13 14 -13 4 -46 5 -62 1z"/>
<path d="M5821 454 c0 -11 3 -14 6 -6 3 7 2 16 -1 19 -3 4 -6 -2 -5 -13z"/>
<path d="M121 158 c1 -35 4 -51 6 -36 3 20 11 28 31 31 l27 4 -27 2 c-23 1
-28 6 -28 26 0 21 5 25 29 25 16 0 32 -5 34 -10 3 -6 4 -5 3 2 -1 7 -19 14
-39 16 l-37 3 1 -63z"/>
<path d="M580 195 c0 -14 2 -25 4 -25 2 0 6 11 8 25 3 14 1 25 -3 25 -5 0 -9
-11 -9 -25z"/>
<path d="M850 211 c0 -5 5 -13 10 -16 6 -3 10 -2 10 4 0 5 -4 13 -10 16 -5 3
-10 2 -10 -4z"/>
<path d="M1033 185 c0 -22 2 -30 4 -17 2 12 2 30 0 40 -3 9 -5 -1 -4 -23z"/>
<path d="M236 181 c-4 -5 3 -7 14 -4 23 6 26 13 6 13 -8 0 -17 -4 -20 -9z"/>
<path d="M317 183 c-15 -14 -6 -33 18 -39 35 -9 34 -38 -1 -31 -16 3 -22 1
-16 -5 15 -15 46 -5 50 15 2 11 -6 20 -22 27 -32 12 -33 27 -3 33 20 4 20 4 1
6 -11 0 -24 -2 -27 -6z"/>
<path d="M398 183 c7 -3 16 -2 19 1 4 3 -2 6 -13 5 -11 0 -14 -3 -6 -6z"/>
<path d="M445 179 c-4 -6 -4 -13 -1 -16 3 -4 6 -1 6 5 0 6 8 13 18 15 15 4 15
5 0 6 -9 0 -20 -4 -23 -10z"/>
<path d="M946 182 c-3 -5 6 -7 19 -4 34 6 32 -14 -2 -27 l-28 -11 28 5 c24 5
28 3 25 -12 -2 -11 -12 -18 -25 -17 -12 0 -20 -3 -17 -8 3 -4 16 -7 30 -6 23
2 25 6 22 43 -2 32 -7 41 -25 43 -11 2 -24 -1 -27 -6z"/>
<path d="M1152 178 c-26 -26 -7 -79 28 -77 9 0 6 4 -8 10 -32 12 -28 64 5 63
12 0 20 3 17 8 -7 12 -28 10 -42 -4z"/>
<path d="M1230 176 c-15 -19 -9 -56 12 -69 34 -22 66 41 36 71 -16 16 -33 15
-48 -2z m45 -31 c0 -23 -4 -30 -20 -30 -21 0 -31 25 -21 51 11 28 41 12 41
-21z"/>
<path d="M1311 141 l2 -46 6 40 c4 27 12 41 24 43 13 3 17 -4 18 -30 l1 -33 7
30 c3 16 14 31 23 33 13 3 18 -6 21 -40 l4 -43 -1 45 -1 45 -52 1 -53 1 1 -46z"/>
<path d="M533 140 c0 -25 2 -35 4 -22 2 12 2 32 0 45 -2 12 -4 2 -4 -23z"/>
<path d="M221 144 c0 -11 3 -14 6 -6 3 7 2 16 -1 19 -3 4 -6 -2 -5 -13z"/>
<path d="M582 130 c0 -19 2 -27 5 -17 2 9 2 25 0 35 -3 9 -5 1 -5 -18z"/>
<path d="M453 143 c9 -2 25 -2 35 0 9 3 1 5 -18 5 -19 0 -27 -2 -17 -5z"/>
<path d="M620 135 c0 -5 5 -17 10 -25 5 -8 10 -10 10 -5 0 6 -5 17 -10 25 -5
8 -10 11 -10 5z"/>
<path d="M1032 120 c0 -14 2 -19 5 -12 2 6 2 18 0 25 -3 6 -5 1 -5 -13z"/>
<path d="M730 121 c0 -5 5 -13 10 -16 6 -3 10 -2 10 4 0 5 -4 13 -10 16 -5 3
-10 2 -10 -4z"/>
<path d="M810 121 c0 -5 5 -13 10 -16 6 -3 10 -2 10 4 0 5 -4 13 -10 16 -5 3
-10 2 -10 -4z"/>
<path d="M238 108 c5 -5 16 -8 23 -6 8 3 3 7 -10 11 -17 4 -21 3 -13 -5z"/>
<path d="M447 108 c2 -5 13 -8 23 -8 10 0 21 3 23 8 3 4 -8 7 -23 7 -15 0 -26
-3 -23 -7z"/>
<path d="M885 110 c3 -5 8 -10 11 -10 2 0 4 5 4 10 0 6 -5 10 -11 10 -5 0 -7
-4 -4 -10z"/>
<path d="M720 80 c-9 -6 -10 -10 -3 -10 6 0 15 5 18 10 8 12 4 12 -15 0z"/>
</g>
</svg>
